<svg height="512pt" viewBox="0 0 512 512" width="512pt" xmlns="http://www.w3.org/2000/svg"><g stroke-width=".25"><path d="m0 0h512v512h-512z" fill="#51d7e2" stroke="#51d7e2"/><path d="m213.92 96.13c20.33-6.3 41.28-10.24 62.12-14.44 3.35-.65 6.64.63 9.8 1.59 14.16 4.72 28.35 9.33 42.38 14.41 5.44 1.92 12.03 3.36 15.05 8.82 3.68 6.22 2.03 13.63 2.18 20.45.02 18.04-1.34 36.05-.97 54.09-.32 6.45 1.08 13.46-2.11 19.4-1.14 2.25-3.84 3.05-5.19 5.05 4.95 2.35 11.17 4.57 12.98 10.33 1.64 6.6 1.46 13.46 1.69 20.21.7 13.32.62 26.66.96 40 .53 9.33.66 18.7-.22 28.02 5.63 2.75 13.04 5.93 13.9 12.99 1.45 26.98-1.85 53.95-.91 80.94-.01 1.7-.01 3.42-.41 5.09-1.32 5.03-5.45 8.75-10.4 10.09-16.88 4.82-34.41 6.98-51.79 9.2-5.22.89-9.94-2.12-14.96-2.67-12.22 3.95-24.18 8.83-36.5 12.55-8.9 2.6-17.79-.97-26.54-2.37-12.85-3.37-26.02-5.32-39.04-7.95-6.45-1.62-13.36-2.19-19.08-5.88-4.84-3.7-6.14-9.85-5.89-15.62.29-14.48.63-28.99-.18-43.46-.02-9.31-.14-18.63.03-27.93 0-4.69 3.99-8.03 8.06-9.53 5.86-2.05 11.97-3.32 18.11-4.2-4.3-1.42-8.91-2.11-12.87-4.42-2.97-1.79-4.69-4.97-6.14-8.01-2.13-4.66-1.62-9.92-1.77-14.9-.3-21.33-.64-42.65-.48-63.98-.2-6.37 1.4-13.52 7.25-17.04 8.93-5.22 19.25-7.24 28.95-10.54-.44-2.8-1.05-5.6-1.15-8.45.06-23.99-.49-47.98-.41-71.97-.07-3.71.04-7.61 1.75-10.98 2.49-4.44 6.93-7.55 11.8-8.89z" fill="#041852" stroke="#041852"/><path d="m274.61 85.82c2.79-.41 5.76-1.09 8.45.14 17.09 6.32 34.44 11.86 51.81 17.33 4.73 1.56 7.87 6.81 7.51 11.7-1.05 25.65-1.46 51.33-1.12 77 .07 2.63-.69 5.18-1.76 7.55-1.9 1.59-3.74 3.58-6.31 3.97-6.11 1.16-12.29 1.9-18.37 3.22-.69-1.07-1.37-2.13-2.05-3.19.9-2.53 1.3-5.2 1.2-7.89-.5 1.61-.94 3.23-1.4 4.85-.6.15-1.8.45-2.4.6.87-1.21 1.69-2.45 2.52-3.69-.53-2.63-.96-5.27-1.61-7.87-4.01 1.34-7.8 3.24-11.63 5.01-2.21.79-2.83 3.18-4.05 4.92-.98-.08-1.93-.23-2.88-.45-.44 1.17-.87 2.35-1.3 3.52-.64 1.93-2.44 3.81-1.72 5.95 1.74 1.76 4.37.83 6.5.6 3.2-.69 6.48-1.16 9.72-.41-6.97 1.94-14.22 2.62-21.19 4.57-7.19 1.37-14.22 3.75-21.52 4.45-9.86-.75-18.6-6.01-27.98-8.68-6.74-1.95-13.34-4.28-20.01-6.43-3.98-1.14-7.59-3.71-9.39-7.51-2-3.35-1.35-7.37-1.4-11.08.36-11.87-.08-23.76.09-35.63.38-1.44.84-2.87 1.3-4.29.35 5.37-.14 10.8.92 16.12 1.64-9.06 1.92-18.25 1.9-27.43.23 11.63.37 23.26 1.16 34.88-.89 4.13-1.01 8.36-1.23 12.56-.21 4.32-1.75 9.34 1.62 12.88 4.57-4.58 2.02-11.7 1.31-17.32.35.29 1.05.87 1.4 1.16 3.76 2.56 8.16 3.94 12.4 5.51 4.09 1.16 9.01 2.67 12.88.13 1.04 2.16 2.28 4.25 3.98 5.98-1.37-.67-2.98-.93-4.07.38-2.1 2.27-1.91 5.6-1.92 8.48 1.58-1.5 2.51-3.5 3.05-5.59l.05.12c2.69 8.92 9.05 17.05 17.67 20.78 1.45-3.03 1.64-6.54 1.42-9.84-.05-1.2-1.22-1.76-1.97-2.48-.62-1.91-1.67-3.63-2.91-5.19.59.09 1.77.29 2.36.39.91-2.1 2-4.2 1.97-6.54.19-5.46.53-10.92.58-16.38.02-16.41.81-32.85-.41-49.23.03-2.58-.85-5.58-3.73-6.15-11.42-3.35-22.26-8.75-34.08-10.65-3.06-.72-5.98.63-8.72 1.82-.81.35-1.6.73-2.37 1.14l-.97.64c-.6.41-1.2.83-1.8 1.25-.72-.54-1.43-1.08-2.14-1.63.89-2.19 1.77-4.52 3.6-6.13 4.67-4.58 11.41-5.61 17.46-7.32 16.52-3.55 32.94-7.64 49.58-10.6z" fill="#faffff" stroke="#faffff"/><path d="m227.92 100.53c13.82-4.18 27.86-7.64 42.1-10.07 5.62-.08 11.4-.52 16.87 1.1 8.92 2.16 17.58 5.25 26.19 8.38 3.4 1.03 6.75 2.26 9.8 4.1-3.56 2.18-7.97 1.59-11.89 2.69-9.99 1.37-19.91 3.27-29.92 4.5-10.05.47-20.34 1.31-30.16-1.43-9.03-2.42-18.07-4.86-27.13-7.18 1.22-.98 2.62-1.68 4.14-2.09z" fill="#3cd7e5" stroke="#3cd7e5"/><path d="m272.27 91.47c3.25-.36 6.69-.73 9.88.23 1.42.7.5 2.85-1.03 2.55-3.75.06-7.51-.01-11.27-.07-2.43-1.37 1.09-2.61 2.42-2.71z" fill="#e4ffff" stroke="#e4ffff"/><path d="m272.07 98.12c3.27-1.59 7.52-1.09 9.87 1.84 2.36 2.18 1.59 5.57 1.44 8.4-2.85 1.04-5.85.69-8.75.1-.38-.41-1.15-1.24-1.53-1.66-2.24-.44-4.47-.94-6.7-1.44-.72-3.69 2.81-5.88 5.67-7.24z" fill="#dbfbff" stroke="#dbfbff"/><path d="m284.66 103.89c1.91-3.86 6.6-4.3 10.33-5.21 3.57-.86 7.02.69 10.25 2.02.18.6.55 1.8.73 2.39-6.1.15-12.17.73-18.25 1.09-.76-.07-2.29-.22-3.06-.29z" fill="#e3fcff" stroke="#e3fcff"/><path d="m305.24 100.7c.9.76 3.61 1.24 2.41 2.88-6.18 3.27-13.47 2.64-19.93.6 6.08-.36 12.15-.94 18.25-1.09-.18-.59-.55-1.79-.73-2.39z" fill="#8ce6f6" stroke="#8ce6f6"/><path d="m211.25 108.47c2.74-1.19 5.66-2.54 8.72-1.82 11.82 1.9 22.66 7.3 34.08 10.65 2.88.57 3.76 3.57 3.73 6.15-.49 2.79-1 5.61-.8 8.45-1.54-.28-2.28.43-2.23 2.12-.1.17-.32.52-.43.69l.59.29c.48.28 1.42.85 1.89 1.14.81 8.94.7 17.96.21 26.92-1.16.07-2.32.14-3.47.22l.02.32-.04.63c-.35.33-1.04 1-1.38 1.33-1.77 1.18-3.28 2.67-4.62 4.32-1.11.57-2.25 1.09-3.37 1.63-1.8-4.01-1.64-8.78-4.35-12.35 0 .86-.01 2.57-.01 3.43l-.64-1.36c.01-.41.02-1.21.03-1.62.26-.44.79-1.31 1.06-1.75-1.23-8.45-3.06-16.82-5.11-25.11-1.42-6.19-5.58-11.14-9.83-15.65.06 3.93.06 8.03 1.86 11.62 4.62 8.76 4.79 18.95 7.97 28.21 1.19 4.23 2.17 8.54 3.71 12.67-.29-.16-.89-.47-1.18-.63-.11.89-.21 1.79-.3 2.69-1.18-1.05-2.32-2.12-3.56-3.1-.31.06-.93.18-1.24.23-1.59.11-1.61 2.26-1.06 3.34l-.92-.55c-.26-2.02-.44-4.06-.69-6.08-3.37 3.47-3.71 8.63-5.69 12.86l-.84-.12c-3.24-10.78-3.8-22.1-5.38-33.19-1.19-10.59-2.97-21.11-4.84-31.6 2.12-2.36 5.5-2.44 8.15-3.92-3.33-.46-6.68-.79-10.04-1.06z" fill="#35d6e4" stroke="#35d6e4"/><path d="m312.48 109.74c5.96-1.15 11.92-3.04 18.06-2.34-.76 1.59-1.53 3.18-2.23 4.8-4.81.22-9.56 1-14.33 1.55-3.96.05-5.49 4.3-7.05 7.25-6.48 14.35-10.8 29.55-16.43 44.23-3.86-.62-7.88-2.75-11.75-1.14-1.72 1.14-3.18 2.65-4.98 3.68-2.34.98-4.92 1.1-7.39 1.5-.27-4.72-.26-9.45-.38-14.18 1.92-2.07 5.3-.12 6.91-2.26.69-2.39-.43-4.87-.69-7.27-.85.01-1.71.03-2.56.04-1.17 1.03-2.33 2.06-3.49 3.1-1.13-2.76-.69-5.78-.74-8.68.1-5.69-.25-11.41.4-17.07.08-1.77 1.15-3.1 2.66-3.89 1.49 1.39 3.19 2.96 5.43 2.34 11.52-1.45 22.89-3.9 34.13-6.78.77-.31 1.53-.64 2.29-.99-4.85-.42-9.75.35-14.54-.66 5.55-1.12 11.09-2.32 16.68-3.23z" fill="#35d6e5" stroke="#35d6e5"/><path d="m330.54 107.4c3.19-.3 5.24 2.23 6.96 4.51.18 4.76-.55 9.47-1.64 14.09-3.09 13.09-4.05 26.59-7 39.7l-.22.14c-5.03 1.62-3.49 7.26-2.22 10.98-1.69 4.84-5.66 8.66-10.49 10.31-1.26-1.76-2.51-3.52-3.71-5.31.42-1.7-2.21-3.01-2.71-.98-2.42-2.7-5.07-5.24-8.35-6.85-1.75-2.25-3.6-4.46-6.06-5.98.28.63.84 1.88 1.12 2.5-.66-.58-1.35-1.13-2.06-1.64l1.33.25c-4.62-2.64-9.88-4.12-15.13-4.87-.4-.04-1.21-.12-1.61-.16 3.87-1.61 7.89.52 11.75 1.14 1.09.25 2.19.49 3.29.73 1.72-4.6 3.3-9.25 4.77-13.94-.46 4.87-2.34 9.42-3.39 14.16 2.6 1.8 4.96 3.94 6.82 6.52l.87-.6c3-1.05 5.74.61 8.3 1.96 1.51-3.56 2.46-7.32 3.05-11.13 3.16-15.19 7.58-30.08 11.81-44.99.76-1.91 1.49-3.84 2.29-5.74.7-1.62 1.47-3.21 2.23-4.8z" fill="#092264" stroke="#092264"/><path d="m208.88 109.61c.77-.41 1.56-.79 2.37-1.14 3.36.27 6.71.6 10.04 1.06-2.65 1.48-6.03 1.56-8.15 3.92-.84-.72-1.67-1.45-2.49-2.19-.6-.55-1.19-1.1-1.77-1.65z" fill="#58dff1" stroke="#58dff1"/><path d="m203.97 109.87c.71.55 1.42 1.09 2.14 1.63.6-.42 1.2-.84 1.8-1.25-.49 7.51.89 14.99.53 22.52.02 9.18-.26 18.37-1.9 27.43-1.06-5.32-.57-10.75-.92-16.12-.46 1.42-.92 2.85-1.3 4.29-.02-12.82-1.93-25.72-.35-38.5z" fill="#e3f6fd" stroke="#e3f6fd"/><path d="m207.91 110.25.97-.64c.58.55 1.17 1.1 1.77 1.65.24 5.46-.99 10.95-.13 16.36.37-2.61.38-5.26.51-7.89 2.04 9.29 3.12 18.77 3.7 28.25.69 8.54 2.75 17.09 1.81 25.69-.13 2.01-2.51 2.28-3.84 3.26-.35-.29-1.05-.87-1.4-1.16-.51-2.72-1.15-5.41-1.7-8.12-.79-11.62-.93-23.25-1.16-34.88.36-7.53-1.02-15.01-.53-22.52z" fill="#14add6" stroke="#14add6"/><path d="m210.52 127.62c-.86-5.41.37-10.9.13-16.36.82.74 1.65 1.47 2.49 2.19 1.87 10.49 3.65 21.01 4.84 31.6 1.58 11.09 2.14 22.41 5.38 33.19 1.99 3.27 6.13 4.22 9.69 4.42 3.66.11 5.75-3.43 8.03-5.75l.45.46c-1.16 1.74-2.28 3.52-3.55 5.2-3.87 2.54-8.79 1.03-12.88-.13-4.24-1.57-8.64-2.95-12.4-5.51 1.33-.98 3.71-1.25 3.84-3.26.94-8.6-1.12-17.15-1.81-25.69-.58-9.48-1.66-18.96-3.7-28.25-.13 2.63-.14 5.28-.51 7.89z" fill="#002165" stroke="#002165"/><path d="m313.98 113.75c4.77-.55 9.52-1.33 14.33-1.55-.8 1.9-1.53 3.83-2.29 5.74-4.73 7.49-8.19 15.67-11.32 23.92-1.88 5.13-4.39 10.03-5.72 15.34-.47 1.2-.21 2.21.78 3.02-.17.11-.51.33-.68.44-.48-.07-1.44-.2-1.93-.27-1.05 4.03-2.41 7.99-4.29 11.71l-.87.6c-1.86-2.58-4.22-4.72-6.82-6.52 1.05-4.74 2.93-9.29 3.39-14.16-1.47 4.69-3.05 9.34-4.77 13.94-1.1-.24-2.2-.48-3.29-.73 5.63-14.68 9.95-29.88 16.43-44.23 1.56-2.95 3.09-7.2 7.05-7.25z" fill="#0ea0d3" stroke="#0ea0d3"/><path d="m337.5 111.91c.6 21.23.17 42.48-.28 63.71h-.59c-.14-5.18.04-10.36-.15-15.53-.09 5.26.08 10.53-.28 15.79-1.64.52-3.28 1.05-4.82 1.79.33-2.95.26-5.92.48-8.88 2-14.2 2.49-28.54 4-42.79 1.09-4.62 1.82-9.33 1.64-14.09z" fill="#0e95c4" stroke="#0e95c4"/><path d="m280.23 115.58c5.15-.97 10.27-2.85 15.57-2.61 4.79 1.01 9.69.24 14.54.66-.76.35-1.52.68-2.29.99-11.24 2.88-22.61 5.33-34.13 6.78-2.24.62-3.94-.95-5.43-2.34 3.35-2.65 7.75-2.64 11.74-3.48z" fill="#8af0ff" stroke="#8af0ff"/><path d="m225.3 117.1c4.25 4.51 8.41 9.46 9.83 15.65 2.05 8.29 3.88 16.66 5.11 25.11-.27.44-.8 1.31-1.06 1.75-.46-1.39-1.06-2.71-1.71-4.01-.17.59-.51 1.76-.68 2.35-.41-.26-1.24-.77-1.66-1.02-3.18-9.26-3.35-19.45-7.97-28.21-1.8-3.59-1.8-7.69-1.86-11.62z" fill="#f8fffe" stroke="#f8fffe"/><path d="m314.7 141.86c3.13-8.25 6.59-16.43 11.32-23.92-4.23 14.91-8.65 29.8-11.81 44.99-.59 3.81-1.54 7.57-3.05 11.13-2.56-1.35-5.3-3.01-8.3-1.96 1.88-3.72 3.24-7.68 4.29-11.71.49.07 1.45.2 1.93.27.17-.11.51-.33.68-.44 1.82-.6 1.36-3.95-.78-3.02 1.33-5.31 3.84-10.21 5.72-15.34z" fill="#0b75b9" stroke="#0b75b9"/><path d="m257.78 123.45c1.22 16.38.43 32.82.41 49.23-1.68.05-3.36.11-5.03.17.06-2.88.17-5.75.36-8.62l.04-.63c.4 2.67.73 5.36.88 8.06.61.04 1.85.12 2.47.16.02-2.92-.01-5.85.1-8.76.49-8.96.6-17.98-.21-26.92l-.1-.79c-.45-.09-1.34-.26-1.79-.35l-.59-.29c.11-.17.33-.52.43-.69 1.64.19 2.38-.51 2.23-2.12-.2-2.84.31-5.66.8-8.45z" fill="#3bb4c9" stroke="#3bb4c9"/><path d="m328.86 165.7c2.95-13.11 3.91-26.61 7-39.7-1.51 14.25-2 28.59-4 42.79-1.02-1.02-2.01-2.05-3-3.09z" fill="#ccfcff" stroke="#ccfcff"/><path d="m279.03 138.67c-5.2-1.11-4.47-9.36-.07-10.94 3.42.67 2.98 5.52 4.53 8.09-.83 1.86-2.1 3.79-4.46 2.85z" fill="#00639c" stroke="#00639c"/><path d="m278.05 129.73c1.71 2.11 3.27 4.33 4.87 6.53-.73.24-2.18.73-2.91.97-1.28-2.31-3.57-4.72-1.96-7.5z" fill="#a6e5fb" stroke="#a6e5fb"/><path d="m231.99 131.58c2.53 2.09 3.19 5.43 3.92 8.46.62 3.66 1.24 7.51.44 11.19-1.37 2.01-2.08-1.09-2.34-2.17-.89-5.77-3.12-11.61-2.02-17.48z" fill="#69d8eb" stroke="#69d8eb"/><path d="m254.75 134.02c-.05-1.69.69-2.4 2.23-2.12.15 1.61-.59 2.31-2.23 2.12z" fill="#68f3fe" stroke="#68f3fe"/><path d="m254.91 135c.45.09 1.34.26 1.79.35l.1.79c-.47-.29-1.41-.86-1.89-1.14z" fill="#64f0fe" stroke="#64f0fe"/><path d="m269.66 145.6c.85-.01 1.71-.03 2.56-.04.26 2.4 1.38 4.88.69 7.27-1.61 2.14-4.99.19-6.91 2.26.12 4.73.11 9.46.38 14.18 2.47-.4 5.05-.52 7.39-1.5 1.8-1.03 3.26-2.54 4.98-3.68.4.04 1.21.12 1.61.16-1.03 1.09-2.07 2.17-3.13 3.23-3.43 1.5-7.09 2.38-10.73 3.18l-.98.13c.95-3.55.07-7.21.18-10.82-.28-3.78.94-7.5.47-11.27 1.16-1.04 2.32-2.07 3.49-3.1z" fill="#0a3685" stroke="#0a3685"/><path d="m267.54 147.69c1.49-.42 2.91-2 4.57-1.21-.04.69-.12 2.07-.17 2.76-.98.72-1.18 2.66.44 2.68-2.63 2.89-5.22-1.73-4.84-4.23z" fill="#8af0ff" stroke="#8af0ff"/><path d="m272.38 151.92c-1.62-.02-1.42-1.96-.44-2.68.11.67.33 2.01.44 2.68z" fill="#bcffff" stroke="#bcffff"/><path d="m237.47 155.6c.65 1.3 1.25 2.62 1.71 4.01-.01.41-.02 1.21-.03 1.62l.64 1.36c.11 1.39.19 2.78.25 4.17-1.76-2.65-2.82-5.67-3.25-8.81.17-.59.51-1.76.68-2.35z" fill="#6cbacc" stroke="#6cbacc"/><path d="m235.13 156.93c.42.25 1.25.76 1.66 1.02.43 3.14 1.49 6.16 3.25 8.81-.06-1.39-.14-2.78-.25-4.17 0-.86.01-2.57.01-3.43 2.71 3.57 2.55 8.34 4.35 12.35.38 1.29.7 2.6 1 3.92-.29.53-.87 1.58-1.16 2.1-1.98-2.46-3.77-5.08-5.15-7.93-1.54-4.13-2.52-8.44-3.71-12.67z" fill="#dcfaff" stroke="#dcfaff"/><path d="m308.98 157.2c2.14-.93 2.6 2.42.78 3.02-.99-.81-1.25-1.82-.78-3.02z" fill="#59b6e4" stroke="#59b6e4"/><path d="m336.48 160.09c.19 5.17.01 10.35.15 15.53-.33 7.19 1.68 14.51-.4 21.56-.35 1.5-1.47 2.89-3.16 2.73-1.36-.52-1.73-2.14-2.48-3.22-.82-1.56-1.5-3.18-2.11-4.83 2.27 1.57 3.35 5.54 6.41 5.39 2.11-6.96.93-14.25 1.31-21.37.36-5.26.19-10.53.28-15.79z" fill="#012569" stroke="#012569"/><path d="m253.54 163.28c1.15-.08 2.31-.15 3.47-.22-.11 2.91-.08 5.84-.1 8.76-.62-.04-1.86-.12-2.47-.16-.15-2.7-.48-5.39-.88-8.06z" fill="#07bfdf" stroke="#07bfdf"/><path d="m252.14 165.56c.34-.33 1.03-1 1.38-1.33-.19 2.87-.3 5.74-.36 8.62 1.67-.06 3.35-.12 5.03-.17-.05 5.46-.39 10.92-.58 16.38.03 2.34-1.06 4.44-1.97 6.54-.59-.1-1.77-.3-2.36-.39-4.87-.7-8.27-4.75-10.61-8.75.07-.29.2-.89.27-1.19 2.47 4.18 5.8 8.62 11.19 8.63 1.74-3.49 3.64-7.07 3.42-11.1-1.13-.45-2.25-.88-3.36-1.34l1.96.62c-1.54-2.67-2.45-6.52-6.05-6.97.22-.95.45-1.9.68-2.85-.47.12-1.42.35-1.89.47-.64.15-1.92.47-2.55.62-.3.52-.89 1.56-1.19 2.08-.3-1.32-.62-2.63-1-3.92 1.12-.54 2.26-1.06 3.37-1.63 1.35-.66 2.72-1.29 4.02-2.05.15-.56.45-1.7.6-2.27z" fill="#022a7c" stroke="#022a7c"/><path d="m277.23 167.48c1.06-1.06 2.1-2.14 3.13-3.23 5.25.75 10.51 2.23 15.13 4.87l-1.33-.25c-1.79-.51-3.57-1.05-5.34-1.6-1.08 1.14-2.15 2.29-3.2 3.44-3.17.09-7.16.48-8.39-3.23z" fill="#ddf9fd" stroke="#ddf9fd"/><path d="m224.2 178.36c1.98-4.23 2.32-9.39 5.69-12.86.25 2.02.43 4.06.69 6.08l.92.55.75.32c.31-.37.94-1.1 1.26-1.47 2.65 1.79 5.42 3.5 7.57 5.93-2.28 2.32-4.37 5.86-8.03 5.75-3.56-.2-7.7-1.15-9.69-4.42z" fill="#0787c7" stroke="#0787c7"/><path d="m247.52 169.88c1.34-1.65 2.85-3.14 4.62-4.32-.15.57-.45 1.71-.6 2.27-1.3.76-2.67 1.39-4.02 2.05z" fill="#8af0ff" stroke="#8af0ff"/><path d="m326.42 176.82c-1.27-3.72-2.81-9.36 2.22-10.98-.6 1.75-1.25 3.49-2 5.19.59 1.68 1.18 3.37 1.77 5.05-1.25 3-2.5 6.14-4.84 8.48-2.16 2.34-5.15 3.57-7.84 5.16-1.96-1.91-3.28-4.43-5.64-5.92-2.79-1.85-4.49-4.89-7.17-6.85-1.98-1.32-3.76.42-5.36 1.47-2.78 2.04-6.06 3.76-9.6 3.65-4.85-.33-9.39-2.27-14.2-2.82-2.77-.02-7.01-.55-7.32 3.27 2.12-.51 4.24-1.06 6.38-1.53-.06 1.99-.13 3.97-.26 5.96l-.01.16c-.07-1.9-.2-3.79-.31-5.69-1.68.51-3.4.95-4.98 1.71-1.07 4.44-.3 9.06-.17 13.57 1.21-.91 2.44-1.8 3.62-2.76-1.28 2.44-2.9 4.77-5.21 6.35.03-7.41-.04-14.82.14-22.22 4.85.25 9.77-.05 14.53 1.1 2.88.58 5.76 1.55 8.74 1.35 3.9-.51 7.04-3.05 10.22-5.15.5-.34 1.52-1.04 2.03-1.38 3.28 1.61 5.93 4.15 8.35 6.85.68.24 2.03.73 2.71.98 1.2 1.79 2.45 3.55 3.71 5.31 4.83-1.65 8.8-5.47 10.49-10.31z" fill="#041852" stroke="#041852"/><path d="m240.08 167.37c1.32.24 1.6.99.84 2.26-1.33-.26-1.61-1.01-.84-2.26z" fill="#80c2cc" stroke="#80c2cc"/><path d="m266.5 170.66c3.64-.8 7.3-1.68 10.73-3.18 1.23 3.71 5.22 3.32 8.39 3.23 1.05-1.15 2.12-2.3 3.2-3.44 1.77.55 3.55 1.09 5.34 1.6.71.51 1.4 1.06 2.06 1.64.98 1.61 1.94 3.24 2.91 4.86-3.18 2.1-6.32 4.64-10.22 5.15-2.98.2-5.86-.77-8.74-1.35-4.76-1.15-9.68-.85-14.53-1.1.1-2.47-.48-5.17.86-7.41z" fill="#0aa4d5" stroke="#0aa4d5"/><path d="m209.6 167.65c.55 2.71 1.19 5.4 1.7 8.12.71 5.62 3.26 12.74-1.31 17.32-3.37-3.54-1.83-8.56-1.62-12.88.22-4.2.34-8.43 1.23-12.56z" fill="#a4e5fb" stroke="#a4e5fb"/><path d="m232.56 168.79c.31-.05.93-.17 1.24-.23 1.24.98 2.38 2.05 3.56 3.1.09-.9.19-1.8.3-2.69.29.16.89.47 1.18.63 1.38 2.85 3.17 5.47 5.15 7.93.29-.52.87-1.57 1.16-2.1.3-.52.89-1.56 1.19-2.08.63-.15 1.91-.47 2.55-.62-1.95 2.85-3.98 5.71-6.74 7.84.16-.76.48-2.28.64-3.04l-1.26-.16-.45-.46c-2.15-2.43-4.92-4.14-7.57-5.93-.24-.55-.71-1.64-.95-2.19z" fill="#0c80b2" stroke="#0c80b2"/><path d="m231.5 172.13c-.55-1.08-.53-3.23 1.06-3.34.24.55.71 1.64.95 2.19-.32.37-.95 1.1-1.26 1.47z" fill="#fcffff" stroke="#fcffff"/><path d="m295.1 168.01c2.46 1.52 4.31 3.73 6.06 5.98-.51.34-1.53 1.04-2.03 1.38-.97-1.62-1.93-3.25-2.91-4.86-.28-.62-.84-1.87-1.12-2.5z" fill="#d1f8fe" stroke="#d1f8fe"/><path d="m248.89 172.73c.47-.12 1.42-.35 1.89-.47-.23.95-.46 1.9-.68 2.85 1.24 2.19 2.57 4.34 4.09 6.35 1.11.46 2.23.89 3.36 1.34.22 4.03-1.68 7.61-3.42 11.1-5.39-.01-8.72-4.45-11.19-8.63-.07.3-.2.9-.27 1.19-1.27-1.77-1.01-3.9-.52-5.89 2.76-2.13 4.79-4.99 6.74-7.84z" fill="#0cadd9" stroke="#0cadd9"/><path d="m250.1 175.11c3.6.45 4.51 4.3 6.05 6.97l-1.96-.62c-1.52-2.01-2.85-4.16-4.09-6.35z" fill="#a5e7fd" stroke="#a5e7fd"/><path d="m331.38 177.67c1.54-.74 3.18-1.27 4.82-1.79-.38 7.12.8 14.41-1.31 21.37-3.06.15-4.14-3.82-6.41-5.39-.48-1.19-.52-2.49-.6-3.75.16-1.76.67-3.56-.23-5.22.54-2.15 1.72-4.13 3.73-5.22z" fill="#0a4ca5" stroke="#0a4ca5"/><path d="m241.53 177.37 1.26.16c-.16.76-.48 2.28-.64 3.04-.49 1.99-.75 4.12.52 5.89 2.34 4 5.74 8.05 10.61 8.75 1.24 1.56 2.29 3.28 2.91 5.19-3.38-1.15-7.03-2.31-9.38-5.17-2.11-2.33-3.55-5.7-6.97-6.33l-.29.99c-.13.48-.39 1.45-.53 1.93-.54 2.09-1.47 4.09-3.05 5.59.01-2.88-.18-6.21 1.92-8.48 1.09-1.31 2.7-1.05 4.07-.38-1.7-1.73-2.94-3.82-3.98-5.98 1.27-1.68 2.39-3.46 3.55-5.2z" fill="#bcf2ff" stroke="#bcf2ff"/><path d="m266.44 182.52c.31-3.82 4.55-3.29 7.32-3.27.06 2.46 1.61 6.19-1.2 7.7.13-1.99.2-3.97.26-5.96-2.14.47-4.26 1.02-6.38 1.53z" fill="#b5ecfc" stroke="#b5ecfc"/><path d="m309.51 180.84c.5-2.03 3.13-.72 2.71.98-.68-.25-2.03-.74-2.71-.98z" fill="#ceedfd" stroke="#ceedfd"/><path d="m267.26 183.13c1.58-.76 3.3-1.2 4.98-1.71.11 1.9.24 3.79.31 5.69-.42 2.32-.95 4.64-1.84 6.83-1.18.96-2.41 1.85-3.62 2.76-.13-4.51-.9-9.13.17-13.57z" fill="#0e94d0" stroke="#0e94d0"/><path d="m215.35 184.25c1.3 1.32 2.83 2.38 4.71 2.71l-.21.44c-.17.34-.49 1.02-.65 1.36 3.16.77 6.56 1 9.46 2.57 2.09 1.9 1.01 5.21 1.36 7.72-3.99.12-7.83-1.07-11.77-1.44-1.21-.53-2.42-1.06-3.62-1.58.05-1.38.11-2.76.19-4.14.2-2.54.5-5.09.53-7.64z" fill="#0d83cb" stroke="#0d83cb"/><path d="m219.2 188.76c.16-.34.48-1.02.65-1.36 3.12.13 6.15 1.08 9.26 1.39 1.58.17 1.93 1.98 2.25 3.22.46 2.85.36 5.74.49 8.61-2.81.91-5.74.04-8.58-.18-1.74-.83-3.38-1.84-5.02-2.83 3.94.37 7.78 1.56 11.77 1.44-.35-2.51.73-5.82-1.36-7.72-2.9-1.57-6.3-1.8-9.46-2.57z" fill="#1e7db0" stroke="#1e7db0"/><path d="m315.4 191.28c2.93-.91 5.71-2.26 8.64-3.18.83.46 1.65.95 2.44 1.49.46-.5.93-.99 1.4-1.48.08 1.26.12 2.56.6 3.75.61 1.65 1.29 3.27 2.11 4.83-2.09.82-.72 3.27-.81 4.91-3.91.02-7.93 1.39-11.76.49-1.63-3.34-1.51-7.28-2.62-10.81z" fill="#91e2f9" stroke="#91e2f9"/><path d="m299.45 194.55c3.83-1.77 7.62-3.67 11.63-5.01.65 2.6 1.08 5.24 1.61 7.87-.83 1.24-1.65 2.48-2.52 3.69-6.15 1.77-12.48 2.83-18.82 3.64-.03-.55-.09-1.65-.13-2.2.43-1.17.86-2.35 1.3-3.52.95.22 1.9.37 2.88.45 1.22-1.74 1.84-4.13 4.05-4.92z" fill="#21c1e3" stroke="#21c1e3"/><path d="m239.84 188.9c3.42.63 4.86 4 6.97 6.33 2.35 2.86 6 4.02 9.38 5.17.75.72 1.92 1.28 1.97 2.48.22 3.3.03 6.81-1.42 9.84-8.62-3.73-14.98-11.86-17.67-20.78 1.98 1.37 3.37 3.33 4.38 5.49 1.94 4.04 5.35 7.04 8.31 10.3.18-1.13.37-2.26.56-3.39.76-.62 1.53-1.25 2.3-1.87-3.84-1.92-8.15-3.74-10.49-7.55-1.2-1.96-2.72-3.69-4.58-5.03z" fill="#0c67aa" stroke="#0c67aa"/><path d="m239.02 191.82c.14-.48.4-1.45.53-1.93 1.86 1.34 3.38 3.07 4.58 5.03 2.34 3.81 6.65 5.63 10.49 7.55-.77.62-1.54 1.25-2.3 1.87-.19 1.13-.38 2.26-.56 3.39-2.96-3.26-6.37-6.26-8.31-10.3-1.01-2.16-2.4-4.12-4.38-5.49z" fill="#0a61b2" stroke="#0a61b2"/><path d="m213.21 199.98c.51-2.7 1-5.4 1.61-8.09-.08 1.38-.14 2.76-.19 4.14 1.2.52 2.41 1.05 3.62 1.58 1.64.99 3.28 2 5.02 2.83-3.14 2.05-6.84.56-10.06-.46z" fill="#a5e0ee" stroke="#a5e0ee"/><path d="m312.57 200.5c.46-1.62.9-3.24 1.4-4.85.1 2.69-.3 5.36-1.2 7.89.68 1.06 1.36 2.12 2.05 3.19-3.01.74-5.99 1.9-9.1 1.95-3.24-.75-6.52-.28-9.72.41-2.13.23-4.76 1.16-6.5-.6-.72-2.14 1.08-4.02 1.72-5.95.04.55.1 1.65.13 2.2 6.34-.81 12.67-1.87 18.82-3.64.6-.15 1.8-.45 2.4-.6z" fill="#cdf3f9" stroke="#cdf3f9"/><path d="m176.99 208.49c8.27-3.75 17.14-6 25.86-8.4.36.22 1.07.65 1.43.87.16.52.5 1.58.67 2.1-5.76.35-11.29 2.39-16.16 5.43 3.83.12 7.81-.72 11.5.68 3.71 1.42 7.71 1.52 11.61 2.07 9.39 2.41 19.06 4.14 28.77 4.12 1.46-.03 2.89.26 4.32.49.02 1.29-.42 2.34-1.34 3.13-.31 1.33-.71 2.66-.83 4.04-.26 21.69-.13 43.39-.21 65.08-.18 2.44-.23 4.9-.3 7.36-.01.17-.02.53-.03.71-.79-6.06.42-12.1.2-18.17-.25-18.78.15-37.57-.19-56.35-1.24-.26-2.47-.51-3.68-.86-2.21-1.33-4.45-2.78-7.09-3.02-10.16-1.28-20.31-2.59-30.48-3.72-6.03-.77-11.97-2.62-18.09-2.36-1.13.03-2.09.7-3.05 1.2-5.11 2.79-4.45 9.18-4.39 14.11.33 5.2-.34 10.38-1.01 15.53-1.9.34-3.29 1.56-4.36 3.07-.27-1.96-.59-3.91-.85-5.87-.18-6.93-.55-13.91.11-20.83.27-4.59 3.47-8.58 7.59-10.41z" fill="#f2fcfd" stroke="#f2fcfd"/><path d="m204.28 200.96c2.2 1.58 4.51 3.02 7 4.12-.56.27-1.69.83-2.26 1.11.98.64 1.95 1.28 2.94 1.92-.02.78-.05 2.35-.06 3.13-3.9-.55-7.9-.65-11.61-2.07-3.69-1.4-7.67-.56-11.5-.68 4.87-3.04 10.4-5.08 16.16-5.43-.17-.52-.51-1.58-.67-2.1z" fill="#7bdbed" stroke="#7bdbed"/><path d="m266.35 202.37c5.99-.04 12.09-.83 18.01.35.4 2.65.24 5.33.25 8-6.13 1.37-12.27 2.66-18.39 4.04-.39-4.13-.04-8.27.13-12.39z" fill="#ace9fd" stroke="#ace9fd"/><path d="m211.28 205.08c7.44 2.68 15.09 4.67 22.72 6.71 2.42.74 5.27 1.18 6.67 3.57-9.71.02-19.38-1.71-28.77-4.12.01-.78.04-2.35.06-3.13-.99-.64-1.96-1.28-2.94-1.92.57-.28 1.7-.84 2.26-1.11z" fill="#19b3d5" stroke="#19b3d5"/><path d="m253.24 205.24c.96-1.55 3.38.13 2.35 1.59-.92 1.66-3.49-.12-2.35-1.59z" fill="#b6ecfc" stroke="#b6ecfc"/><path d="m200.82 207.94c-.95-1.81 2.16-1.46 3.1-1.67 2.72-.35 5.08 1.23 7.12 2.79-3.29.76-7.58 1.42-10.22-1.12z" fill="#e8ffff" stroke="#e8ffff"/><path d="m308.12 211.45c9.05-2.12 18.18-5.2 27.61-4.32l-.08.57-1.07-.52c-.35 1.26-.68 2.53-1.02 3.8-5.24 1.6-10.66 2.53-16.06 3.48-7.1 1.02-14.14 2.43-21.18 3.83-4.62.55-9.22 1.3-13.81 2.08-1.58-.85-3.16-1.7-4.74-2.52 9.94-2.9 20.34-3.74 30.35-6.4z" fill="#129dc8" stroke="#129dc8"/><path d="m333.56 210.98c.34-1.27.67-2.54 1.02-3.8l1.07.52c4.16 2.28 9.63 4.13 11.49 8.88 2.05 12.03 1.3 24.31 1.99 36.45.07 15.69.78 31.36.67 47.05.16 3.95-2.31 8.14-6.28 9.13-6.13 1.51-12.5 1.64-18.6 3.31-13.2 3.37-26.88 4.21-40.13 7.32-4.37 1.11-9.52 2.74-13.54-.21-5-4.16-12.38-3.32-17.26-7.8.73-.17 2.18-.51 2.91-.68 4.27 1.49 8.4 3.41 12.78 4.65-.04-2.58-.49-5.14-1.79-7.4.02-.39.08-1.16.1-1.54.01-.51.03-1.52.04-2.03-.6-2.55-2.04-4.75-3.68-6.74-2.29 1.1-4.5 2.34-6.49 3.91-.29.19-.87.56-1.16.74-.1-2.12.33-4.57-1.17-6.31-.96.02-1.91.04-2.86.06.05-2.83-.03-5.67.03-8.5l.95.8c.8 1.73 1.59 3.46 2.34 5.22 3.88 1.59 7.76-.17 11.31-1.7 3.87 5.96 1.48 13.55 4.67 19.74.84 2.07 2.62 3.51 4.17 5.04 3.85-4.66 2.23-11.31 2.47-16.9-.57-22.42-.05-44.87-1.27-67.26-.12-3.67-2.66-6.51-4.67-9.34-.13-.35-.39-1.06-.52-1.42 3.47-.51 6.91-1.17 10.36-1.8 4.59-.78 9.19-1.53 13.81-2.08-1.98.44-3.98.85-5.96 1.29 1.12.32 2.25.62 3.39.9-.95.49-1.88.99-2.82 1.48-2.13.8-4.26 1.6-6.31 2.6-3.69 1.62-4.35 5.81-3.97 9.41 1.38 14.09.31 28.3 1.28 42.41 5.32.34 10.76-2.06 15.96.18-.37.21-1.1.62-1.46.82-4.65-1.46-9.39.67-14.03 1.13.11 7.71.17 15.42.23 23.14 6.28-1.62 12.54-3.33 18.75-5.21 5.7-1.46 9.47-6.64 15.21-8.06.59.21 1.78.63 2.38.85-1.57 1.19-3.16 2.35-4.71 3.57-1.31 1.03-2.52 2.18-3.74 3.32 4.33 3.21 9.05 6.02 12.68 10.06.22 1.22.36 2.46.42 3.71.39-.18 1.17-.53 1.56-.71.19-3.21.4-6.43.49-9.65 1.33.22 2.66.46 3.99.71.13.45.37 1.35.49 1.8.27 1.4.47 2.81.7 4.22 2.73-.18 5.47-.27 8.22-.17 2 .31 3.91.09 4.53-2.16 2.28-3.16 2.36-7.17 2.56-10.91.16-6.82-.03-13.65-.8-20.43-.44-.08-1.32-.26-1.76-.34-.2 3.89.08 7.83-.58 11.7-1.44 3.89-4.78 6.66-7.9 9.22-1.37 1.25-3.32 2.32-3.51 4.36-.19.38-.58 1.13-.78 1.51-.36-.59-1.08-1.75-1.45-2.33-3.52-.6-6.69-2.23-8.28-5.58.23-.21.67-.64.89-.85 3.29.99 6.82 1.87 10.24.91 3.59-1.13 5.86-4.63 6.84-8.1 4.29-15.29 4.36-31.3 4.76-47.06-.14-5.88.45-11.97-1.49-17.63-1.14-2.46-4.16-2.72-6.51-3.02-4.61-.33-9.2.43-13.71 1.29-1.57-.69-3.1-1.44-4.62-2.21 5.4-.95 10.82-1.88 16.06-3.48z" fill="#f8feff" stroke="#f8feff"/><path d="m179.9 212.89c.96-.5 1.92-1.17 3.05-1.2 6.12-.26 12.06 1.59 18.09 2.36 10.17 1.13 20.32 2.44 30.48 3.72 2.64.24 4.88 1.69 7.09 3.02.42 11.39.17 22.79.01 34.18-.29 11.9.08 23.8-.28 35.7-4.12.2-8.2-.39-12.3-.43-3.38 1.57-6.17 4.5-10.01 4.96-3.43-.22-6.69-1.43-10.02-2.17-.07-.37-.21-1.11-.29-1.48-1.33-8.2-4.23-16.19-4.07-24.59.04-4.56-1.07-9.05-2.88-13.21-.1-.77-.19-1.53-.26-2.28-.5-3.86-.67-7.91-2.46-11.44-1.48-3.01-2.59-6.17-3.24-9.45-.73-3.96-1.96-7.81-3.55-11.5-1.18-.95-2.36-1.89-3.38-3.01-.08-.25-.25-.77-.33-1.03-.27-.88-.48-1.76-.8-2.62-1.63-.01-3.25.21-4.85.47z" fill="#36d6e4" stroke="#36d6e4"/><path d="m179.9 212.89c1.6-.26 3.22-.48 4.85-.47.32.86.53 1.74.8 2.62-1.87.29-3.73.62-5.58 1.03-4.55 3.23-2.46 9.58-1.94 14.22 1.53 9.3.27 18.78.73 28.16-.61 4.14-.39 8.32.01 12.47.46 4.86-.67 9.65-1.98 14.29-.49-1.03-.98-2.06-1.46-3.08-.09 2.16-.19 4.32-.16 6.49l-.4-.53c-.2-1.23-.35-2.46-.46-3.7-.18-13.95.1-27.91.19-41.86.67-5.15 1.34-10.33 1.01-15.53-.06-4.93-.72-11.32 4.39-14.11z" fill="#24c3dc" stroke="#24c3dc"/><path d="m179.97 216.07c1.85-.41 3.71-.74 5.58-1.03.08.26.25.78.33 1.03-1.62.4-3.23.85-4.82 1.35.43 1.54.87 3.08 1.33 4.62 2.22-1.01 4.44-2.04 6.7-2.98.21 1.7.44 3.4.68 5.1-2.17 1.96-4.99 2.4-7.81 2.15-1.32-3.26-1.97-6.73-1.99-10.24z" fill="#18a8db" stroke="#18a8db"/><path d="m296.32 218.29c7.04-1.4 14.08-2.81 21.18-3.83 1.52.77 3.05 1.52 4.62 2.21-3.52.72-7.04 1.46-10.61 1.84-7.02.13-13.68 2.52-20.58 3.45.94-.49 1.87-.99 2.82-1.48-1.14-.28-2.27-.58-3.39-.9 1.98-.44 3.98-.85 5.96-1.29z" fill="#e4ffff" stroke="#e4ffff"/><path d="m178.03 230.29c-.52-4.64-2.61-10.99 1.94-14.22.02 3.51.67 6.98 1.99 10.24 2.82.25 5.64-.19 7.81-2.15.42 2.85 1.13 5.64 1.84 8.44.72 3.43.85 6.95 1.29 10.42.96 3.33 2.64 6.4 4.1 9.52.2.03.58.1.78.14.18-.31.54-.91.73-1.21.07.75.16 1.51.26 2.28-1.96 1.42-.83 4.22-1.1 6.27.29 3.51-1.66 6.64-2.04 10.06 2.01 3.06 5.79 5.05 6.43 8.92 1.01 4.85 2.66 9.63 2.5 14.65-4.54-.9-8.95-2.77-12.67-5.55-4.84-3.92-5.05-10.58-6.16-16.21-1.78-9.01-2.83-18.13-4.02-27.22.1-4.94.46-10.07-1.24-14.81-.3-.8-.9-2.42-1.2-3.22-.13.37-.39 1.13-.53 1.5-.17.54-.53 1.61-.71 2.15z" fill="#31d6e4" stroke="#31d6e4"/><path d="m181.06 217.42c1.59-.5 3.2-.95 4.82-1.35 1.02 1.12 2.2 2.06 3.38 3.01 1.59 3.69 2.82 7.54 3.55 11.5-.3.5-.9 1.51-1.2 2.02-.71-2.8-1.42-5.59-1.84-8.44-.24-1.7-.47-3.4-.68-5.1-2.26.94-4.48 1.97-6.7 2.98-.46-1.54-.9-3.08-1.33-4.62z" fill="#bef5fe" stroke="#bef5fe"/><path d="m322.12 216.67c4.51-.86 9.1-1.62 13.71-1.29-1.33 4.82-1.58 10.1.68 14.68-.73 2.5-1.56 4.97-2.16 7.5-3.74 5.07-5.26 11.3-7.81 16.99-3.48 10.02-6.05 20.35-10.48 30.03-3.29-.54-6.59-1.11-9.74-2.2 1.53-7.82 4.45-15.29 7-22.82.17.89.52 2.68.69 3.57 2.64-.1 5.89-.01 7.49-2.54.25-1.26.13-2.54.15-3.81-2.11-.4-4.21-.82-6.3-1.22 3-3.32 6.11-6.53 9.31-9.66.34-.33 1.02-1 1.36-1.34.72-3.49.15-7.04-.9-10.4.34-1.05.7-2.08 1.1-3.1-.32-.16-.64-.33-.96-.48-2.31 7.76-6.98 14.48-9.94 21.97-3.57 8.48-5.76 17.45-9.25 25.97-1.16.19-2.32.36-3.47.53-2.09-.44-4.15-1-6.17-1.67.36-.2 1.09-.61 1.46-.82-5.2-2.24-10.64.16-15.96-.18-.97-14.11.1-28.32-1.28-42.41-.38-3.6.28-7.79 3.97-9.41 4.73 1.99 9.69.11 14.44-.69 6.02-1.27 12.18-2.04 17.97-4.21-1.84-.41-3.68-.81-5.52-1.15 3.57-.38 7.09-1.12 10.61-1.84z" fill="#32d4e5" stroke="#32d4e5"/><path d="m335.83 215.38c2.35.3 5.37.56 6.51 3.02 1.94 5.66 1.35 11.75 1.49 17.63-.4 15.76-.47 31.77-4.76 47.06-.98 3.47-3.25 6.97-6.84 8.1-3.42.96-6.95.08-10.24-.91.27-.88.82-2.63 1.1-3.5-2.22.33-4.5.52-6.5 1.6-5.74 1.42-9.51 6.6-15.21 8.06-6.21 1.88-12.47 3.59-18.75 5.21-.06-7.72-.12-15.43-.23-23.14 4.64-.46 9.38-2.59 14.03-1.13 2.02.67 4.08 1.23 6.17 1.67 1.27 1.06 2.46 2.23 3.72 3.33 3.15 1.09 6.45 1.66 9.74 2.2 3.94.14 6.51-3.52 7.37-6.98 4.14-13.19 8.76-26.34 10.92-40.04.6-2.53 1.43-5 2.16-7.5-2.26-4.58-2.01-9.86-.68-14.68z" fill="#082263" stroke="#082263"/><path d="m208.13 219.43c2.6-.82 5.32-1.01 7.97-.3 5.92 1.27 12.51-1.41 18.03 1.69-1.95.84-4.07 1.17-6.19.99-6.62-.62-13.15-2.43-19.81-2.38z" fill="#a9feff" stroke="#a9feff"/><path d="m245.52 217.03c2.7.05 5.31.76 7.77 1.84-1.78 2.74-3.47 5.71-3.04 9.12.31 21.81-.43 43.62.13 65.42-2.58 1.06-5.29 1.77-8.07 2.05.07-2.46.12-4.92.3-7.36l.42-1.11c.31-20.98.15-41.97.15-62.96-.28-2.61 1.73-4.59 2.34-7z" fill="#0c9dce" stroke="#0c9dce"/><path d="m257.99 221.12c6.41-.74 12.94-1.3 19.01-3.67l.77.4c1.58.82 3.16 1.67 4.74 2.52-3.45.63-6.89 1.29-10.36 1.8.13.36.39 1.07.52 1.42-2.43 2.71-4.79 5.49-6.48 8.73-1.44 2.83-4.52 4.95-4.53 8.36-.24 5.21-.31 10.43-.78 15.63-.68-3.4-1.23-6.82-1.59-10.26-.24.11-.7.34-.93.45l-.52.28c-.65.68-1.29 1.37-1.9 2.09.07-4.09-.12-8.18-.74-12.22-.36-4.51-.54-9.03-.96-13.53.18-1.65 2.49-1.66 3.75-2z" fill="#0b70b8" stroke="#0b70b8"/><path d="m337.25 218.21c3.32-.29 3.93 3.42 2.54 5.76-.37.46-1.12 1.37-1.49 1.83-.36-2.53-.67-5.07-1.05-7.59z" fill="#d1f8fe" stroke="#d1f8fe"/><path d="m290.93 221.96c6.9-.93 13.56-3.32 20.58-3.45 1.84.34 3.68.74 5.52 1.15-5.79 2.17-11.95 2.94-17.97 4.21-4.75.8-9.71 2.68-14.44.69 2.05-1 4.18-1.8 6.31-2.6z" fill="#79eaf9" stroke="#79eaf9"/><path d="m336.58 227.34c-.39-3.03-.77-6.32.67-9.13.38 2.52.69 5.06 1.05 7.59.37-.46 1.12-1.37 1.49-1.83-.25 1.58-.88 5.45-3.21 3.37z" fill="#38c6e4" stroke="#38c6e4"/><path d="m202.43 220.33c1.25-1.32 3.25.92 2.02 2.13-1.26 1.31-3.23-.92-2.02-2.13z" fill="#5aebf6" stroke="#5aebf6"/><path d="m238.61 220.79c1.21.35 2.44.6 3.68.86.34 18.78-.06 37.57.19 56.35.22 6.07-.99 12.11-.2 18.17.15 2.36.05 4.73-.01 7.1-.92-.81-1.81-1.64-2.74-2.43-.15.01-.46.03-.62.04l-.5.04c.02-2.68-.02-5.36-.07-8.04 0-.55 0-1.66 0-2.21.36-11.9-.01-23.8.28-35.7.16-11.39.41-22.79-.01-34.18z" fill="#d9feff" stroke="#d9feff"/><path d="m253.07 225.08c.29-.49.87-1.47 1.17-1.96.42 4.5.6 9.02.96 13.53-.13 4.29.09 8.63-.84 12.85-.47-2.58-.79-5.18-1.06-7.78-.62-5.51-1.08-11.14-.23-16.64z" fill="#206fb4" stroke="#206fb4"/><path d="m272.67 223.59c2.01 2.83 4.55 5.67 4.67 9.34 1.22 22.39.7 44.84 1.27 67.26-3.51-.06-7.19-2.32-7.32-6.13.34-1.35-.02-2.8-1.32-3.51-.12-.1-.36-.32-.48-.42-1.6-4.78-3.93-9.32-4.95-14.28-1.32-6.49-2.64-12.99-3.66-19.54.47-5.2.54-10.42.78-15.63.01-3.41 3.09-5.53 4.53-8.36 1.69-3.24 4.05-6.02 6.48-8.73z" fill="#0d7fbf" stroke="#0d7fbf"/><path d="m178.74 228.14c.14-.37.4-1.13.53-1.5.3.8.9 2.42 1.2 3.22.68 5.06 2.47 10.7-.41 15.39-.31-5.71-1.45-11.38-1.32-17.11z" fill="#044b6f" stroke="#044b6f"/><path d="m308.35 227.04c2.01-.79 2.65 2.67.64 2.97-1.89.49-2.36-2.49-.64-2.97z" fill="#a8faff" stroke="#a8faff"/><path d="m178.03 230.29c.18-.54.54-1.61.71-2.15-.13 5.73 1.01 11.4 1.32 17.11 2.88-4.69 1.09-10.33.41-15.39 1.7 4.74 1.34 9.87 1.24 14.81-.37.32-1.12.97-1.49 1.3.57 12.78 2.09 25.49 3.95 38.13.03 3.48 3.95 4.14 6.3 5.68 4.73 2.81 9.45 5.72 14.76 7.34-.18-1.26-.34-2.53-.47-3.79.24-.45.72-1.33.96-1.78.08.37.22 1.11.29 1.48.31 1.58.55 3.16.93 4.73 1.42.29 2.86.53 4.3.73.29-.53.85-1.59 1.14-2.13.38.34 1.15 1.01 1.54 1.34 3.27-1.09 6.66-2.19 9.37-4.42-.11.95-.24 1.9-.4 2.85l-.57.74c-1.13 1.25-2.34 2.42-3.52 3.61-1.83.2-3.64.57-5.45.93.01.62.04 1.88.05 2.5-1.74-1.18-3.48-2.36-5.22-3.54.74-.28 2.21-.84 2.94-1.12-1.96-.31-3.92-.17-5.78.56-4.42-3.01-9.86-3.31-14.92-4.47.02 1.37.04 2.75.07 4.13 2.83 1.69 5.83 3.23 9.21 3.36-.22.52-.65 1.58-.86 2.1-3.67-.7-7.37-1.51-11.12-1.46-1.63-.11-2.71 1.27-3.94 2.09 3.2.15 6.4.52 9.52 1.27-3.33.01-6.72.48-10-.26-1.68-.69-2.92-2.11-4.26-3.28 3.47-.26 4.85-3.52 5.82-6.39.8-1.51.5-3.18-.19-4.66-1.12-2.94-2.49-5.9-5.17-7.73 1.31-8.65.48-17.46-.74-26.06-.46-9.38.8-18.86-.73-28.16z" fill="#dafaff" stroke="#dafaff"/><path d="m325.26 230.58c.32.15.64.32.96.48-.4 1.02-.76 2.05-1.1 3.1-1.02 3.84-.64 7.83-.46 11.74-3.2 3.13-6.31 6.34-9.31 9.66-.81 1.26-1.5 2.6-2.03 4-2.55 7.53-5.47 15-7 22.82-1.26-1.1-2.45-2.27-3.72-3.33 1.15-.17 2.31-.34 3.47-.53 3.49-8.52 5.68-17.49 9.25-25.97 2.96-7.49 7.63-14.21 9.94-21.97z" fill="#f3ffff" stroke="#f3ffff"/><path d="m191.61 232.6c.3-.51.9-1.52 1.2-2.02.65 3.28 1.76 6.44 3.24 9.45 1.79 3.53 1.96 7.58 2.46 11.44-.19.3-.55.9-.73 1.21-.2-.04-.58-.11-.78-.14-1.46-3.12-3.14-6.19-4.1-9.52-.44-3.47-.57-6.99-1.29-10.42z" fill="#f2ffff" stroke="#f2ffff"/><path d="m222.2 234.93c.8-2.3 3.8-1.28 5.64-1.65-.42 1.85.57 4.91-1.81 5.62-2.36.95-4.96-1.61-3.83-3.97z" fill="#0c80b2" stroke="#0c80b2"/><path d="m224.28 234.19c1.64-.54 2.19.01 1.65 1.63-1.64.53-2.19-.01-1.65-1.63z" fill="#49c4ee" stroke="#49c4ee"/><path d="m324.66 245.9c-.18-3.91-.56-7.9.46-11.74 1.05 3.36 1.62 6.91.9 10.4-.34.34-1.02 1.01-1.36 1.34z" fill="#42c0ca" stroke="#42c0ca"/><path d="m255.2 236.65c.62 4.04.81 8.13.74 12.22.61-.72 1.25-1.41 1.9-2.09l.52-.28c-.68 10.37 1.6 20.63 3.91 30.67.84 3.89 2.5 7.53 4.32 11.05-.49.25-1.46.75-1.95.99l-.78 1.32c-1.67 2.63-5.44 1.88-7.87 3.48-.75-1.76-1.54-3.49-2.34-5.22-.89-15.65-1.27-31.39-.35-47.07.27 2.6.59 5.2 1.06 7.78.93-4.22.71-8.56.84-12.85z" fill="#0b4598" stroke="#0b4598"/><path d="m299.8 239.64c-.11-2.57 2.16-.39 2.93.46-.36 1.01-.72 2.02-1.07 3.04-2.05-.12-4.32-.93-3.76-3.49l1.14.59c.53 2.2 3.11.06.76-.6z" fill="#26acc2" stroke="#26acc2"/><path d="m326.54 254.55c2.55-5.69 4.07-11.92 7.81-16.99-2.16 13.7-6.78 26.85-10.92 40.04-.86 3.46-3.43 7.12-7.37 6.98 4.43-9.68 7-20.01 10.48-30.03z" fill="#1182c0" stroke="#1182c0"/><path d="m169.29 239.73c.26 1.96.58 3.91.85 5.87 1.07-1.51 2.46-2.73 4.36-3.07-.09 13.95-.37 27.91-.19 41.86-2.32 3.92-.15 9.69-4.54 12.39-.74-19-.65-38.04-.48-57.05z" fill="#ceedfd" stroke="#ceedfd"/><path d="m299.04 240.24.76-.6c2.35.66-.23 2.8-.76.6z" fill="#95fdff" stroke="#95fdff"/><path d="m228.95 248.23c1.57-2.36 3.32-4.58 5.04-6.82.25.56.74 1.66.98 2.22-1.2 1.19-2.36 2.42-3.57 3.61-.03.02-.11.08-.14.1-.58.22-1.73.67-2.31.89z" fill="#74f2fc" stroke="#74f2fc"/><path d="m180.22 245.97c.37-.33 1.12-.98 1.49-1.3 1.19 9.09 2.24 18.21 4.02 27.22 1.11 5.63 1.32 12.29 6.16 16.21 3.72 2.78 8.13 4.65 12.67 5.55l.2-.32c.13 1.26.29 2.53.47 3.79-5.31-1.62-10.03-4.53-14.76-7.34-2.35-1.54-6.27-2.2-6.3-5.68-1.86-12.64-3.38-25.35-3.95-38.13z" fill="#001d56" stroke="#001d56"/><path d="m258.36 246.5c.23-.11.69-.34.93-.45.36 3.44.91 6.86 1.59 10.26 1.02 6.55 2.34 13.05 3.66 19.54 1.02 4.96 3.35 9.5 4.95 14.28-1.89.08-3.76.25-5.63.4l.78-1.32c.49-.24 1.46-.74 1.95-.99-1.82-3.52-3.48-7.16-4.32-11.05-2.31-10.04-4.59-20.3-3.91-30.67z" fill="#e3fcff" stroke="#e3fcff"/><path d="m231.26 247.34c.03-.02.11-.08.14-.1-.03.02-.11.08-.14.1z" fill="#149cac" stroke="#149cac"/><path d="m304.31 247.43c.91-1.13 3.28.12 2.36 1.49-.91 1.24-3.38-.11-2.36-1.49z" fill="#1098bc" stroke="#1098bc"/><path d="m230.19 250.37c1.11-1.01 3.49-.23 3.18 1.46-.57 1.86-4.45.13-3.18-1.46z" fill="#0ea3c1" stroke="#0ea3c1"/><path d="m197.67 260.02c.27-2.05-.86-4.85 1.1-6.27 1.81 4.16 2.92 8.65 2.88 13.21-.16 8.4 2.74 16.39 4.07 24.59-.24.45-.72 1.33-.96 1.78l-.2.32c.16-5.02-1.49-9.8-2.5-14.65-.64-3.87-4.42-5.86-6.43-8.92.38-3.42 2.33-6.55 2.04-10.06z" fill="#f5ffff" stroke="#f5ffff"/><path d="m228.13 254.31c1.9.02 3.79.04 5.69.06-.25 1.47.39 4.15-1.81 4.22-2.71.73-5.26-1.59-3.88-4.28z" fill="#0b70b8" stroke="#0b70b8"/><path d="m298.62 254.84c.1-2.47 3.82-.44 2.07 1.13-.52-.28-1.55-.85-2.07-1.13z" fill="#82edfe" stroke="#82edfe"/><path d="m229.99 255.19c1.66-.52 2.24.02 1.75 1.61-1.67.51-2.25-.03-1.75-1.61z" fill="#55e1f4" stroke="#55e1f4"/><path d="m298.02 257.06c-1.82-.24-1.06-3.05.6-2.22.52.28 1.55.85 2.07 1.13-.41 1.12-1.3 1.48-2.67 1.09z" fill="#26afc4" stroke="#26afc4"/><path d="m313.32 259.56c.53-1.4 1.22-2.74 2.03-4 2.09.4 4.19.82 6.3 1.22-.02 1.27.1 2.55-.15 3.81-1.6 2.53-4.85 2.44-7.49 2.54-.17-.89-.52-2.68-.69-3.57z" fill="#0c80b2" stroke="#0c80b2"/><path d="m315.09 260.81c-.15-3.65 3.88-4.47 6.46-2.71-.92 2.28-4.4 5.07-6.46 2.71z" fill="#53e2f2" stroke="#53e2f2"/><path d="m178.76 258.45c1.22 8.6 2.05 17.41.74 26.06-.13.83-.39 2.48-.52 3.31-1.18.38-2.35.76-3.53 1.15l-.28-.35c-.03-2.17.07-4.33.16-6.49.48 1.02.97 2.05 1.46 3.08 1.31-4.64 2.44-9.43 1.98-14.29-.4-4.15-.62-8.33-.01-12.47z" fill="#0e95c4" stroke="#0e95c4"/><path d="m224.31 265.97c.11-3.23 4.12-2.33 6.22-2.97.27.82.57 1.62.89 2.43-.76 1.24-1.25 2.74-2.49 3.61-1.97 1.34-5.23-.67-4.62-3.07z" fill="#012569" stroke="#012569"/><path d="m225.68 264.25c1.44-.58 3.2-.94 4.26.48-1.43-.47-2.78 1.93-1.23 2.68l.71.72c-2.44.89-5.19-1.38-3.74-3.88z" fill="#55e1f4" stroke="#55e1f4"/><path d="m228.71 267.41c-1.55-.75-.2-3.15 1.23-2.68l.3.72c-.38.49-1.15 1.47-1.53 1.96z" fill="#8ef1f9" stroke="#8ef1f9"/><path d="m335.25 266.04c1.52-1.32 3.03 1.5 1.52 2.43-1.48 1.11-2.89-1.47-1.52-2.43z" fill="#ceedfd" stroke="#ceedfd"/><path d="m286.33 268.42c3.19-3.31 8.65-.65 8.21 3.87-.62.02-1.87.05-2.49.07.1-.53.31-1.58.41-2.11-.62-.91-1.23-1.82-1.84-2.72-1.52.8-2.93 1.77-4.21 2.91 1.87.6 3.73 1.31 5.37 2.43-1.97-.03-4.37.7-5.92-.91.14-1.19.29-2.37.47-3.54z" fill="#118caa" stroke="#118caa"/><path d="m286.41 270.44c1.28-1.14 2.69-2.11 4.21-2.91.61.9 1.22 1.81 1.84 2.72-.1.53-.31 1.58-.41 2.11l-.12.6-.15-.09c-1.64-1.12-3.5-1.83-5.37-2.43z" fill="#51c6e5" stroke="#51c6e5"/><path d="m343.6 272.25c.44.08 1.32.26 1.76.34.77 6.78.96 13.61.8 20.43-.2 3.74-.28 7.75-2.56 10.91-3.53-2.93-7.62-5.04-11.99-6.4.19-2.04 2.14-3.11 3.51-4.36 3.12-2.56 6.46-5.33 7.9-9.22.66-3.87.38-7.81.58-11.7z" fill="#041f52" stroke="#041f52"/><path d="m283.14 279.42c2.65-1.6 5.9-.96 8.78-1.89 2.36-.86 4.9.06 6.34 2.05.67.8 1.35 1.59 2.05 2.36.29.32.86.96 1.14 1.28 4.93.69 9.84 1.59 14.68 2.77-.16 2.86-4.23 2.51-5.99 4.18-7.62 6.11-17.69 7.42-26.93 9.56.1-6.77-.29-13.54-.07-20.31z" fill="#0ea0d3" stroke="#0ea0d3"/><path d="m297.28 278.36c2.6.62 6.07 1.3 6.89 4.33-.97-.19-2.89-.56-3.86-.75-.7-.77-1.38-1.56-2.05-2.36z" fill="#87ddf4" stroke="#87ddf4"/><path d="m200.22 282.34c1.81-1 2.8 3.03 1 3.38-1.21-.49-1.8-2.32-1-3.38z" fill="#6dedf6" stroke="#6dedf6"/><path d="m318.28 286.4c.89-1.03 2.36-2.81 3.87-2.21.96 2.01-2.79 3.61-3.87 2.21z" fill="#c2ecf7" stroke="#c2ecf7"/><path d="m169.77 296.78c4.39-2.7 2.22-8.47 4.54-12.39.11 1.24.26 2.47.46 3.7l.4.53.28.35c1.93 1.33 3.99 2.85 4.37 5.34-.44-.47-1.32-1.39-1.76-1.85-.35-.38-1.05-1.13-1.39-1.5-2.28 1.97-2.37 4.97-1.79 7.72 1.24 1.66 2.68 3.15 4.16 4.61 1.34 1.17 2.58 2.59 4.26 3.28 3.28.74 6.67.27 10 .26 3.31.71 6.7 1.06 10.09.97-1.12-1.5-2.77-2.4-4.55-2.87.21-.52.64-1.58.86-2.1.22-.56.68-1.66.91-2.22 1.59-.18 3.2-.33 4.73-.8 1.86-.73 3.82-.87 5.78-.56-.73.28-2.2.84-2.94 1.12l5.22 3.54c.1 3.19-.18 6.38-.79 9.52.92.06 1.84.13 2.77.19 6.86 3.98 15.03 4.73 22.77 5.77-.13-.9-.38-2.7-.5-3.6-.23-2.62-.21-5.26-.28-7.88-5.1-1.48-9.76-4.11-13.91-7.37-1.56-.05-3.11-.09-4.66-.06 1.18-1.19 2.39-2.36 3.52-3.61 5.17 2.16 9.99 5.72 15.76 6.02.21-.5.62-1.5.83-2.01.16-.01.47-.03.62-.04.93.79 1.82 1.62 2.74 2.43 2.7-.42 4.96-2.08 6.93-3.87l.42.83c.37 1.05.46 2.14.26 3.28-2.39.51-5.12.7-6.88 2.62-.7 5.2-.85 10.59.46 15.71 3.92-.8 7.92-2.23 9.88-6 1.51.93 3 1.89 4.51 2.85-3.44 1.12-6.71 2.7-10.04 4.08-3.86 1.68-8.23 1.34-12.22.39-14.46-3.64-28.93-7.32-43.58-10.12-4.44-.88-8.88-1.88-13.16-3.35-5.51-1.56-8.8-7.49-9.08-12.91z" fill="#fbfeff" stroke="#fbfeff"/><path d="m179.5 284.51c2.68 1.83 4.05 4.79 5.17 7.73-1.06 1.22-2.11 2.45-3.17 3.68-.56-.54-1.13-1.07-1.68-1.61-.38-2.49-2.44-4.01-4.37-5.34 1.18-.39 2.35-.77 3.53-1.15.13-.83.39-2.48.52-3.31z" fill="#0a73b9" stroke="#0a73b9"/><path d="m340.03 291.14c1.63-1.74 3.21-3.53 4.92-5.19 1.05 5.15-.13 10.29-1.24 15.31-3.37-1.44-6.53-3.35-10.08-4.33 1.68-2.41 4.45-3.65 6.4-5.79z" fill="#092f83" stroke="#092f83"/><path d="m316.59 288.38c2-1.08 4.28-1.27 6.5-1.6-.28.87-.83 2.62-1.1 3.5-.22.21-.66.64-.89.85 1.59 3.35 4.76 4.98 8.28 5.58.37.58 1.09 1.74 1.45 2.33.2-.38.59-1.13.78-1.51 4.37 1.36 8.46 3.47 11.99 6.4-.62 2.25-2.53 2.47-4.53 2.16-.59-1.49-1.19-2.96-1.78-4.44-2.03-.54-4.06-1.09-6.09-1.63-.26.51-.78 1.52-1.05 2.02-.12-.45-.36-1.35-.49-1.8-1.33-.25-2.66-.49-3.99-.71-2.38-3.8-7.04-6.18-11.41-6.73 1.55-1.22 3.14-2.38 4.71-3.57-.6-.22-1.79-.64-2.38-.85z" fill="#c7f0f5" stroke="#c7f0f5"/><path d="m216.03 295.2c3.84-.46 6.63-3.39 10.01-4.96 4.1.04 8.18.63 12.3.43v2.21c-2.25-.16-4.49-.31-6.73-.48-2.39-.46-5.29-2.2-7.31.12-.34.25-.68.5-1.01.76-2.71 2.23-6.1 3.33-9.37 4.42-.39-.33-1.16-1-1.54-1.34-.29.54-.85 1.6-1.14 2.13-1.44-.2-2.88-.44-4.3-.73-.38-1.57-.62-3.15-.93-4.73 3.33.74 6.59 1.95 10.02 2.17z" fill="#002863" stroke="#002863"/><path d="m263.86 290.53c1.87-.15 3.74-.32 5.63-.4.12.1.36.32.48.42-3.54.34-.58 3.22 1.32 3.51.13 3.81 3.81 6.07 7.32 6.13-.24 5.59 1.38 12.24-2.47 16.9-1.55-1.53-3.33-2.97-4.17-5.04-3.19-6.19-.8-13.78-4.67-19.74-3.55 1.53-7.43 3.29-11.31 1.7 2.43-1.6 6.2-.85 7.87-3.48z" fill="#09216b" stroke="#09216b"/><path d="m224.3 292.52c2.02-2.32 4.92-.58 7.31-.12-2.41.53-4.91.99-7.31.12z" fill="#7acdef" stroke="#7acdef"/><path d="m271.29 294.06c-1.9-.29-4.86-3.17-1.32-3.51 1.3.71 1.66 2.16 1.32 3.51z" fill="#389fd2" stroke="#389fd2"/><path d="m174.88 298.68c-.58-2.75-.49-5.75 1.79-7.72.34.37 1.04 1.12 1.39 1.5-1.08 2.06-2.12 4.14-3.18 6.22z" fill="#0f4276" stroke="#0f4276"/><path d="m223.29 293.28c.33-.26.67-.51 1.01-.76 2.4.87 4.9.41 7.31-.12 2.24.17 4.48.32 6.73.48.05 2.68.09 5.36.07 8.04-1.58.21-3.16.08-4.68-.38.84-.22 2.52-.67 3.35-.89-.07-1.79-.13-3.57-.2-5.35-3.87-.22-7.75-.24-11.62-.04-.09.68-.27 2.03-.36 2.71-.5-.21-1.51-.63-2.01-.84.16-.95.29-1.9.4-2.85z" fill="#34a2cb" stroke="#34a2cb"/><path d="m178.06 292.46c.44.46 1.32 1.38 1.76 1.85.55.54 1.12 1.07 1.68 1.61 1.06-1.23 2.11-2.46 3.17-3.68.69 1.48.99 3.15.19 4.66-.97 2.87-2.35 6.13-5.82 6.39-1.48-1.46-2.92-2.95-4.16-4.61 1.06-2.08 2.1-4.16 3.18-6.22z" fill="#0c51a7" stroke="#0c51a7"/><path d="m310.52 296.12c1.22-1.14 2.43-2.29 3.74-3.32 4.37.55 9.03 2.93 11.41 6.73-.09 3.22-.3 6.44-.49 9.65-.39.18-1.17.53-1.56.71-.06-1.25-.2-2.49-.42-3.71-3.63-4.04-8.35-6.85-12.68-10.06z" fill="#12a6d5" stroke="#12a6d5"/><path d="m225.26 294.26c3.87-.2 7.75-.18 11.62.04.07 1.78.13 3.56.2 5.35-.83.22-2.51.67-3.35.89-2.97-1.13-5.89-2.37-8.83-3.57.09-.68.27-2.03.36-2.71z" fill="#08afe0" stroke="#08afe0"/><path d="m190.42 295.34c5.06 1.16 10.5 1.46 14.92 4.47-1.53.47-3.14.62-4.73.8-.23.56-.69 1.66-.91 2.22-3.38-.13-6.38-1.67-9.21-3.36-.03-1.38-.05-2.76-.07-4.13z" fill="#38c6e4" stroke="#38c6e4"/><path d="m242.54 297.93c1.65-2.22 4.58-2.72 6.94-3.86.69 2.02.76 4.1.14 6.16l-.42-.83c-.14-.26-.41-.76-.55-1.02-1.65 1.15-3.32 2.26-4.99 3.37-.86-1.14-1.24-2.42-1.12-3.82z" fill="#1192cb" stroke="#1192cb"/><path d="m222.89 296.13c.5.21 1.51.63 2.01.84 2.94 1.2 5.86 2.44 8.83 3.57 1.52.46 3.1.59 4.68.38l.5-.04c-.21.51-.62 1.51-.83 2.01-5.77-.3-10.59-3.86-15.76-6.02z" fill="#001d56" stroke="#001d56"/><path d="m252.67 296.49c.95-.02 1.9-.04 2.86-.06 1.5 1.74 1.07 4.19 1.17 6.31-.8.31-2.42.94-3.22 1.25-.38-2.49-.66-4.99-.81-7.5z" fill="#a3eef3" stroke="#a3eef3"/><path d="m257.86 302c1.99-1.57 4.2-2.81 6.49-3.91 1.64 1.99 3.08 4.19 3.68 6.74-4.1.96-7.93 2.72-11.72 4.5-.77-.22-2.31-.68-3.08-.91.06-1.44.12-2.88.2-4.31 1.63-.34 3.26-.86 4.43-2.11z" fill="#0883c3" stroke="#0883c3"/><path d="m213.35 301.41c1.81-.36 3.62-.73 5.45-.93 1.55-.03 3.1.01 4.66.06 4.15 3.26 8.81 5.89 13.91 7.37.07 2.62.05 5.26.28 7.88-8.35-.31-16.22-3.35-24.39-4.67l-.07 2.11c.94.12 2.83.35 3.77.47-.39-.02-1.19-.06-1.58-.08-.93-.06-1.85-.13-2.77-.19.61-3.14.89-6.33.79-9.52-.01-.62-.04-1.88-.05-2.5z" fill="#092267" stroke="#092267"/><path d="m293.13 304.05c1.73-1.47 3.82-3.67 6.19-3.4-.1 2.62-2.05 5.59-4.12 7.44-.7-1.35-1.38-2.7-2.07-4.04z" fill="#bee6f0" stroke="#bee6f0"/><path d="m331.2 300.02c2.03.54 4.06 1.09 6.09 1.63.59 1.48 1.19 2.95 1.78 4.44-2.75-.1-5.49-.01-8.22.17-.23-1.41-.43-2.82-.7-4.22.27-.5.79-1.51 1.05-2.02z" fill="#6ad3f2" stroke="#6ad3f2"/><path d="m183.78 305.56c1.23-.82 2.31-2.2 3.94-2.09 3.75-.05 7.45.76 11.12 1.46 1.78.47 3.43 1.37 4.55 2.87-3.39.09-6.78-.26-10.09-.97-3.12-.75-6.32-1.12-9.52-1.27z" fill="#b5e5f0" stroke="#b5e5f0"/><path d="m243 306.13c1.76-1.92 4.49-2.11 6.88-2.62-.1 4.32-.47 9.48 3.46 12.33-1.96 3.77-5.96 5.2-9.88 6-1.31-5.12-1.16-10.51-.46-15.71z" fill="#b5e9fc" stroke="#b5e9fc"/><path d="m282.39 306.64c2.7-1.05 5.41-2.15 8.31-2.52 1.14 2.19 2.27 4.52 1.88 7.08-3.35 1.02-6.57 2.63-10.15 2.62-.04-2.39-.06-4.79-.04-7.18z" fill="#26c1e8" stroke="#26c1e8"/><path d="m256.31 309.33c3.79-1.78 7.62-3.54 11.72-4.5-.01.51-.03 1.52-.04 2.03-.02.38-.08 1.15-.1 1.54 1.3 2.26 1.75 4.82 1.79 7.4-4.38-1.24-8.51-3.16-12.78-4.65-.73.17-2.18.51-2.91.68l-.28.08c-.09-.6-.28-1.8-.37-2.4.74-.05 2.23-.13 2.97-.18z" fill="#b6ecfc" stroke="#b6ecfc"/><path d="m351.59 307.23c4.13 1.94 9.14 3.55 11.43 7.81 1.23 4.55.63 9.34.77 14 .15 13.3-.24 26.59-.81 39.87-.59 10.26-.14 20.54-.42 30.81.04 4.6-3.24 8.7-7.42 10.37-4.13 2.05-8.78 2.29-13.25 3.02-9.71 1.37-19.38 3.07-28.95 5.22-6.49 1.16-13.51 3.1-19.87.31 1.62-1.07 3.2-2.19 4.78-3.32 3.45.42 6.94.44 10.38-.07.41.6.83 1.2 1.26 1.8.61-4.35-1.54-9.38.52-13.27 1.58.76.52 2.87.86 4.23-.46 2.86 1.55 5 3.18 7.06.23-.27.68-.8.9-1.06 4.71.81 9.45-.21 14.05-1.18 1.37-.27 2.52-1.09 3.67-1.83 3.67-.55 7.45-.79 10.94-2.16 2.36-.35 4.71-.68 7.08-.99-.08-.69-.25-2.07-.33-2.76.01-2.39-1.04-4.46-2.93-5.88 1.37-.09 2.74-.19 4.12-.28 1.45 2.29 2.75 4.68 4.05 7.06 1.54-.65 3.58-1.15 3.97-3.06 1.3-5.21.23-10.61.32-15.9.11-6.37.61-12.72.56-19.09-2.94 10.1-.73 22.66-9.32 30.38-1.8-.5-3.61-.9-5.42-1.3 4.14-.48 7.57-3.41 8.7-7.42 2.57-8.71 3.2-17.84 4.91-26.73 1.83-11.76 1.86-23.7 1.83-35.57.17-4.26 1.35-9.26-1.71-12.8-3.07-1.55-6.73-1.08-10.03-1.87-.86-.26-2.58-.8-3.44-1.06 2.23-.94 4.18-2.38 5.62-4.34z" fill="#ebfcff" stroke="#ebfcff"/><path d="m213.26 311.12c8.17 1.32 16.04 4.36 24.39 4.67.12.9.37 2.7.5 3.6-7.74-1.04-15.91-1.79-22.77-5.77.39.02 1.19.06 1.58.08-.94-.12-2.83-.35-3.77-.47z" fill="#c7f4fa" stroke="#c7f4fa"/><path d="m349.41 312.63c3.3.79 6.96.32 10.03 1.87 3.06 3.54 1.88 8.54 1.71 12.8-2.55 2.61-2.96 6.39-4.37 9.61-4.65 10.8-9.53 21.58-12.45 33-2.13 7.6-5.33 14.82-8.52 22.01-.58 1.32-1.47 2.47-2.44 3.53-3.76-.29-7.39-1.33-11.08-2 3.37-1.97 5.33-5.44 7.57-8.5 3.84-5.96 8.12-11.73 11.09-18.2-2.91-1.31-5.83-2.6-8.76-3.86-2.38 7.5-4.75 15.06-8.35 22.08-.64.96-1.35 2.47-2.75 2.29-3.28-5.03-3.54-13.97 2.88-16.67 1.04-5.86 1.12-11.96 3.19-17.58 1.94-3.34 6.5-4.49 7.64-8.42 2.22-6.48 1.55-13.5.55-20.14-1.49-.07-2.98-.15-4.47-.16 1.42-.8 2.88-1.54 4.33-2.31-3.1.1-6.2.37-9.23 1.06 3.44-1.7 6.33-4.4 10.01-5.66-2.73-.43-5.43-1.01-8.1-1.67 4.01-.52 8.03-1.08 12.09-1.12 3.18-.2 6.65-.2 9.43-1.96z" fill="#0e9ace" stroke="#0e9ace"/><path d="m315.39 317.47c3.85-.97 7.78-1.53 11.72-1.94.19.63.56 1.9.74 2.54-7.35 4.73-16.55 4.43-24.38 8.06-.59-2.09-1.28-4.15-1.92-6.22 4.62-.74 9.3-1.23 13.84-2.44z" fill="#0c69b6" stroke="#0c69b6"/><path d="m327.11 315.53.78.18c2.67.66 5.37 1.24 8.1 1.67-3.68 1.26-6.57 3.96-10.01 5.66 3.03-.69 6.13-.96 9.23-1.06-1.45.77-2.91 1.51-4.33 2.31-2.63 1.45-1.16 5.13-1.76 7.57-.05 4.74-4.39 7.49-7.61 10.23.06 3.41.46 6.87 2.21 9.88-.41-.26-1.22-.78-1.63-1.04-2.44 3.87-3.57 8.37-5.63 12.43-3.72 8.51-8.36 16.56-12.87 24.66-.56-.08-1.69-.25-2.25-.33.12-7.82-.29-15.65.27-23.45 1.43-12.62 4.45-25.43 1.86-38.11 7.83-3.63 17.03-3.33 24.38-8.06-.18-.64-.55-1.91-.74-2.54z" fill="#0d8bc7" stroke="#0d8bc7"/><path d="m293.37 320.38c7.31-1 14.63-3.81 22.02-2.91-4.54 1.21-9.22 1.7-13.84 2.44.64 2.07 1.33 4.13 1.92 6.22 2.59 12.68-.43 25.49-1.86 38.11-.31-1.34-.61-2.67-.91-4-.47.89-.94 1.8-1.4 2.71.03-8.66-.36-17.3-.38-25.96-.01-3.27-.71-6.47-1.27-9.67-.4.21-1.18.61-1.57.82-.42-1.69-.91-3.36-1.39-5.03-3.16.12-6.27.69-9.27 1.65-1.9-.17-3.81-.15-5.71-.09-1.98.05-3.98.1-5.91-.35 3.84-.37 7.6-1.18 11.28-2.33 1.71-.7 3.22.68 4.79 1.13 1.32-.05 2.51-.67 3.74-1.08-.06-.42-.18-1.25-.24-1.66z" fill="#002468" stroke="#002468"/><path d="m192.01 318.73c5.86-1.56 11.63.18 17.15 2.05-3.95-.1-7.92.1-11.84-.46l-.19-1.59c-1.71-.04-3.42-.07-5.12 0z" fill="#105797" stroke="#105797"/><path d="m260.25 318.89c3.06-1.71 8.31-.74 8.95 3.2-6.61-1.57-12.82 2.05-19.19 3.21 2.8-2.99 6.78-4.38 10.24-6.41z" fill="#00256b" stroke="#00256b"/><path d="m167.21 324.05c7.45-4.49 16.45-4.24 24.8-5.32 1.7-.07 3.41-.04 5.12 0l.19 1.59c-5.7.05-11.46 1.24-16.73 3.41 8.45 2.53 17.31 3.19 25.89 5.2-1.86.28-3.71.65-5.53 1.09-.11.32-.33.97-.44 1.29-.24 4.55.04 9.11-.48 13.64-1.84-2.25-3.6-4.57-5-7.12-1.32-2.67-1.7-5.61-1.4-8.55-5.19-.91-10.42-1.54-15.64-2.26-2.09-.36-4.23-.23-6.24.44-1.1.58-2.07 1.36-3.01 2.16-3.52 2.56-3.07 7.24-3.53 11.08l-1.54.63c.53-5.72-2.1-13.41 3.54-17.28z" fill="#f8ffff" stroke="#f8ffff"/><path d="m180.59 323.73c5.27-2.17 11.03-3.36 16.73-3.41 3.92.56 7.89.36 11.84.46 9.98 1.65 19.77 4.45 29.84 5.6 3.71.46 7.44-.06 11.01-1.08 6.37-1.16 12.58-4.78 19.19-3.21-1.87 1.74-3.46 3.75-5.2 5.63-4.47 1.07-8.97 2.07-13.53 2.67-3.09-.65-6.26-1-9.41-.6-9.8.97-19.6-.65-29.4-.39-1.73-.13-3.46-.29-5.18-.47-8.58-2.01-17.44-2.67-25.89-5.2z" fill="#0da4d1" stroke="#0da4d1"/><path d="m298.39 321.06c1.99.82 2.54 3.05 2.94 4.97 2.05 10.59.96 21.47-.92 32-.19-8.66-.11-17.33.15-25.99.04-3.79-1.67-7.27-2.17-10.98z" fill="#55e1f4" stroke="#55e1f4"/><path d="m269.2 322.09c1.52.75 3.01 1.58 4.6 2.23 1.93.45 3.93.4 5.91.35-.95 1.89-1.93 3.77-3.2 5.48-.88-.04-2.64-.1-3.53-.14 2.34-.61 4.48-1.93 5.1-4.45-4.73.46-9.45 1.11-14.08 2.16 1.74-1.88 3.33-3.89 5.2-5.63z" fill="#3ab8ca" stroke="#3ab8ca"/><path d="m285.42 324.76c3-.96 6.11-1.53 9.27-1.65.48 1.67.97 3.34 1.39 5.03 1.21 8.2.28 16.57 1.04 24.83 1.23 17.35.85 34.73.39 52.1-.17 2.82-.85 5.81-2.73 7.99-11.95 6.82-25.54 9.77-38.41 14.36-3.44 1.11-6.63 3.22-10.35 3.26-7.92.35-15.44-2.63-23.1-4.17-12.21-3.23-24.75-4.92-37.09-7.59-5.69-1.28-12.21-.99-16.86-5.06-2.42-2.6-4.71-5.89-4.52-9.6.48-3.38.87-6.77 1-10.18.17.73.49 2.19.66 2.92.73-.68 1.46-1.36 2.2-2.04.07 3.2.29 6.4.75 9.58.42 2.39.48 5.21 2.38 7.01 2.23 2.19 5.65 2.49 8.59 1.86 2.08-1.9 3.4-4.63 3.58-7.43-2.69-2.62-5.2-5.42-6.85-8.83-1.23-4.23-2.2-8.55-2.47-12.95.43-.59 1.28-1.78 1.7-2.37 1.2 6.24 3.1 12.35 5.44 18.26 1.2 3.14 5.24 5.97 8.37 3.5 5.95-3.79 11.64-8.15 18.23-10.82 1.79-1.06 3.6.13 4.98 1.27 4.9 4.04 7.94 10.16 13.79 13.06 3.17 1.88 6.94 1.68 10.47 1.55-1.2-.28-2.4-.55-3.59-.8 1.14-.51 2.29-1.01 3.45-1.49 3.75 1.89 6.79 5.07 10.81 6.4 1.62-.32 2.8-1.57 4.08-2.51 2.62-2.27 5.08-4.77 6.88-7.75 1.03-.61 2.07-1.21 3.12-1.8.8.68 1.59 1.37 2.39 2.06 3.18 0 6.3-.68 9.19-2.01-.53 1.46-1.03 2.93-1.47 4.43 1.82-1.16 3.47-2.58 4.85-4.24 1.43-2.5 2.43-5.21 3.2-7.97 2.1-9.03 7.4-16.79 10.64-25.4-.26 5.16-2.33 9.96-2.9 15.07-.85 3.89-1.8 7.82-1.53 11.84-4.33 3.58-4.4 10.71-10 12.92-2.87 1.34-7.83.32-8.67 4.26-1.08 3.22-1.34 6.62-1.79 9.96 6.42-1.81 12.43-4.76 18.61-7.23 3.17-1.24 6.19-2.83 8.9-4.9.15-2.46.24-4.92.15-7.38.1-9.69.16-19.39.24-29.08-.01-7.11 1.29-14.3-.34-21.33-.94-7.04-.19-14.18-1.06-21.21-1.33-2.92-3.73-5.24-7.01-5.73z" fill="#fcffff" stroke="#fcffff"/><path d="m329.12 331.86c.6-2.44-.87-6.12 1.76-7.57 1.49.01 2.98.09 4.47.16 1 6.64 1.67 13.66-.55 20.14-1.14 3.93-5.7 5.08-7.64 8.42-2.07 5.62-2.15 11.72-3.19 17.58-.36-.29-1.1-.88-1.47-1.17-.67-5.84 2.23-11.76 1.22-17.45-1.75-3.01-2.15-6.47-2.21-9.88 3.22-2.74 7.56-5.49 7.61-10.23z" fill="#fcffff" stroke="#fcffff"/><path d="m279.71 324.67c1.9-.06 3.81-.08 5.71.09 3.28.49 5.68 2.81 7.01 5.73-1.93-.05-3.86-.09-5.79-.12-2.25 7.94-4.32 15.94-6.67 23.85-.81 2.83-2.19 5.44-3.66 7.97.41.59.82 1.18 1.24 1.79-2.77 1.55-2.05 5.25-2.99 7.88-2.41 8.8-4.75 17.62-7.28 26.4-4.4.77-8.8 1.53-13.24 1.98-.59.02-1.78.06-2.37.08-.53-6.1-.45-12.44 2.63-17.91 2.34-4.06 2.21-8.75 2.14-13.27 1.11-1.36 2.24-2.78 2.52-4.56l-1.07-.38c-.46-.06-1.39-.17-1.85-.23-1.75.13-3.51.2-5.25.29-.02 2.71 1.47 5.06 1.93 7.66-.4 2.1-1.33 4.05-2.1 6.04-.54-.67-1.07-1.34-1.6-2.01-.22-10.38-1.01-20.78-.07-31.15 5.06-4.13 11.56-5.68 17.32-8.55 3.58-1.69 7.76-2.76 10.24-6.1 1.27-1.71 2.25-3.59 3.2-5.48z" fill="#10a1d3" stroke="#10a1d3"/><path d="m264 327.72c4.63-1.05 9.35-1.7 14.08-2.16-.62 2.52-2.76 3.84-5.1 4.45-7.62 2.02-15.71 3.39-22.47 7.65-3.91 3.77-2.53 9.88-2.76 14.75-.8 19.37 1.32 38.75.4 58.11-3.93.52-2.14-3.99-2.53-6.37.01-.44.04-1.31.06-1.74 0-.89-.01-1.77-.02-2.65-.19-5.93-.06-11.88-.69-17.79-1.2-12.31.32-24.76-1.45-37.03-.27-4.18-3.26-8.29-7.46-9.18-4.49-1.33-9.19-1.6-13.79-2.39 8.48-3.2 18.21 1.37 26.41-2.66.45-.08 1.34-.24 1.79-.32 4.56-.6 9.06-1.6 13.53-2.67z" fill="#f5fefd" stroke="#f5fefd"/><path d="m171.75 327.46c2.01-.67 4.15-.8 6.24-.44 5.22.72 10.45 1.35 15.64 2.26-.3 2.94.08 5.88 1.4 8.55.87 2.29 1.9 4.51 2.98 6.71-.93 1.5-2.66 3.22-1.5 5.11.48 1.37 2.09 1.49 3.32 1.41 2.29-1.47 1.05-4.19.2-6.11.52-4.53.24-9.09.48-13.64 7.33-.45 14.5 1.4 21.76 2.06 4.6.79 9.3 1.06 13.79 2.39 4.2.89 7.19 5 7.46 9.18 1.77 12.27.25 24.72 1.45 37.03.63 5.91.5 11.86.69 17.79-11.63-3.66-22.95-8.58-35-10.69 3.09 2.19 6.62 3.65 10.25 4.69-.81 1.12-1.62 2.25-2.42 3.38-2.93-2.9-5.82-7.38-10.54-6.73-6.54 1.82-11.49 6.82-17.13 10.3-3.99 1.92-7.53-1.88-9.54-4.92 1.68-7.14 1.19-14.53 1.28-21.8.1-7.01-.63-13.98-.92-20.97-.16-6.89-1.83-13.62-2.25-20.49-.65-.34-1.96-1.01-2.61-1.35-.56-1.2-1.13-2.39-1.7-3.57-.83-.04-2.5-.11-3.33-.15z" fill="#34d5e5" stroke="#34d5e5"/><path d="m168.74 329.62c.94-.8 1.91-1.58 3.01-2.16.83.04 2.5.11 3.33.15.57 1.18 1.14 2.37 1.7 3.57-1.64 1.45-2.68 3.4-3.63 5.33.29-2.7.3-5.41.26-8.11-1.56.4-3.11.82-4.67 1.22z" fill="#51d7e2" stroke="#51d7e2"/><path d="m356.78 336.91c1.41-3.22 1.82-7 4.37-9.61.03 11.87 0 23.81-1.83 35.57-1.71 8.89-2.34 18.02-4.91 26.73-1.13 4.01-4.56 6.94-8.7 7.42-3.88.4-7.79.26-11.66-.09-.17-.37-.51-1.11-.68-1.48.97-1.06 1.86-2.21 2.44-3.53 3.19-7.19 6.39-14.41 8.52-22.01 2.92-11.42 7.8-22.2 12.45-33z" fill="#082264" stroke="#082264"/><path d="m168.74 329.62c1.56-.4 3.11-.82 4.67-1.22.04 2.7.03 5.41-.26 8.11-1.14 4.75-.64 9.67-.76 14.51.07 3.74-.38 7.57.63 11.23.23 1.67.38 3.36.52 5.05-.38 0-1.14-.01-1.53-.02.73 5.65 1.55 11.28 2.28 16.92.27 4.4 1.24 8.72 2.47 12.95-3.8-2.32-3.68-7.07-4.17-10.95-.81 2.23-1.82 4.41-2.24 6.76-.55 3.84.57 7.96-1.29 11.58-.46-3.18-.68-6.38-.75-9.58.02-1.85.12-3.69.21-5.52.69-.74 1.39-1.48 2.09-2.21-.32-7.31-1.92-14.5-1.99-21.82-.2-11.93-1.87-23.92.12-35.79z" fill="#012569" stroke="#012569"/><path d="m206.48 328.93c1.72.18 3.45.34 5.18.47 12.27 1.58 24.67 2.61 37.02 1.31-8.2 4.03-17.93-.54-26.41 2.66-7.26-.66-14.43-2.51-21.76-2.06.11-.32.33-.97.44-1.29 1.82-.44 3.67-.81 5.53-1.09z" fill="#d8ffff" stroke="#d8ffff"/><path d="m211.66 329.4c9.8-.26 19.6 1.36 29.4.39 3.15-.4 6.32-.05 9.41.6-.45.08-1.34.24-1.79.32-12.35 1.3-24.75.27-37.02-1.31z" fill="#0c80b2" stroke="#0c80b2"/><path d="m165.21 340.7c.46-3.84.01-8.52 3.53-11.08-1.99 11.87-.32 23.86-.12 35.79-1.26 1.2-2.05 2.78-1.9 4.57-.28 5.27.66 10.5 1.94 15.61-.96 1.67-1.77 3.42-2.44 5.24.05-10.93.35-21.9-.73-32.79-.21-5.78-.19-11.56-.28-17.34z" fill="#a2e7fc" stroke="#a2e7fc"/><path d="m250.51 337.66c6.76-4.26 14.85-5.63 22.47-7.65.89.04 2.65.1 3.53.14-2.48 3.34-6.66 4.41-10.24 6.1-5.76 2.87-12.26 4.42-17.32 8.55-.49 2.52-.83 5.07-1.2 7.61.23-4.87-1.15-10.98 2.76-14.75z" fill="#2dd2e6" stroke="#2dd2e6"/><path d="m279.97 354.22c2.35-7.91 4.42-15.91 6.67-23.85 1.93.03 3.86.07 5.79.12.87 7.03.12 14.17 1.06 21.21-1.22 5.24-.91 10.74-2.67 15.87-3.24 8.61-8.54 16.37-10.64 25.4-.48-.15-1.44-.46-1.92-.61-1.84 2.57-3.63 5.16-5.36 7.79 1.35.26 2.71.52 4.08.79-1.38 1.66-3.03 3.08-4.85 4.24.44-1.5.94-2.97 1.47-4.43-2.89 1.33-6.01 2.01-9.19 2.01-.8-.69-1.59-1.38-2.39-2.06-1.05.59-2.09 1.19-3.12 1.8-1.8 2.98-4.26 5.48-6.88 7.75-.92-.33-1.83-.65-2.74-.97.82-4.02 1.14-8.12 1.04-12.22l1.04-.03c.02 1.18.05 2.36.09 3.55.86-.12 1.72-.23 2.59-.34 4.44-.45 8.84-1.21 13.24-1.98 2.53-8.78 4.87-17.6 7.28-26.4.94-2.63.22-6.33 2.99-7.88-.42-.61-.83-1.2-1.24-1.79 1.47-2.53 2.85-5.14 3.66-7.97z" fill="#0a2164" stroke="#0a2164"/><path d="m173.15 336.51c.95-1.93 1.99-3.88 3.63-5.33.65.34 1.96 1.01 2.61 1.35.42 6.87 2.09 13.6 2.25 20.49.29 6.99 1.02 13.96.92 20.97-.09 7.27.4 14.66-1.28 21.8-3.17-4.02-4.11-9.12-5.29-13.96-.42.59-1.27 1.78-1.7 2.37-.73-5.64-1.55-11.27-2.28-16.92.39.01 1.15.02 1.53.02-.14-1.69-.29-3.38-.52-5.05-1.01-3.66-.56-7.49-.63-11.23.12-4.84-.38-9.76.76-14.51z" fill="#d1f8fe" stroke="#d1f8fe"/><path d="m195.03 337.83c1.4 2.55 3.16 4.87 5 7.12.85 1.92 2.09 4.64-.2 6.11-1.23.08-2.84-.04-3.32-1.41-1.16-1.89.57-3.61 1.5-5.11-1.08-2.2-2.11-4.42-2.98-6.71z" fill="#0c80b2" stroke="#0c80b2"/><path d="m229.03 343.3c.65-1.84 1.98-3.39 3.9-3.97 1.38.21 2.73 1.06 2.69 2.62-.68-.14-2.03-.41-2.71-.55-.68.6-1.29 1.26-1.84 1.98.48-.03 1.46-.09 1.95-.12.46-.03 1.39-.1 1.86-.13 1.05.42 2.09.87 3.12 1.37-1.77 1.52-4 2.2-6.31 2.23-.87-1.16-1.76-2.31-2.66-3.43z" fill="#c5ffff" stroke="#c5ffff"/><path d="m163.67 341.33 1.54-.63c.09 5.78.07 11.56.28 17.34 1.08 10.89.78 21.86.73 32.79.67-1.82 1.48-3.57 2.44-5.24-1.28-5.11-2.22-10.34-1.94-15.61-.15-1.79.64-3.37 1.9-4.57.07 7.32 1.67 14.51 1.99 21.82-.7.73-1.4 1.47-2.09 2.21-.09 1.83-.19 3.67-.21 5.52-.74.68-1.47 1.36-2.2 2.04-.17-.73-.49-2.19-.66-2.92-.13 3.41-.52 6.8-1 10.18-.73-14.38.33-28.82-.56-43.21-.3-6.57-.13-13.15-.22-19.72z" fill="#e3fcff" stroke="#e3fcff"/><path d="m231.07 343.38c.55-.72 1.16-1.38 1.84-1.98.68.14 2.03.41 2.71.55-.18.29-.55.89-.74 1.18-.47.03-1.4.1-1.86.13-.49.03-1.47.09-1.95.12z" fill="#001d56" stroke="#001d56"/><path d="m247.75 352.41c.37-2.54.71-5.09 1.2-7.61-.94 10.37-.15 20.77.07 31.15-.03 3.41 1.47 6.62 1.34 10.04-.07 3.69-.13 7.38-.04 11.07.1 4.1-.22 8.2-1.04 12.22.91.32 1.82.64 2.74.97-1.28.94-2.46 2.19-4.08 2.51-4.02-1.33-7.06-4.51-10.81-6.4l1.19-.49c2.58.23 4.49 2.06 6.48 3.51.26-1.75.5-3.5.82-5.23.39 2.38-1.4 6.89 2.53 6.37.92-19.36-1.2-38.74-.4-58.11z" fill="#041852" stroke="#041852"/><path d="m197.74 346.9c1.65-.45 2.21.13 1.7 1.72-1.65.45-2.22-.12-1.7-1.72z" fill="#ace9fd" stroke="#ace9fd"/><path d="m262.04 354.91c1.05-2.4 2.46-4.8 4.88-6.02-.5 2.63-2.14 5.31-4.88 6.02z" fill="#8af0ff" stroke="#8af0ff"/><path d="m322.09 350.93c.41.26 1.22.78 1.63 1.04 1.01 5.69-1.89 11.61-1.22 17.45.37.29 1.11.88 1.47 1.17-6.42 2.7-6.16 11.64-2.88 16.67 1.4.18 2.11-1.33 2.75-2.29 3.6-7.02 5.97-14.58 8.35-22.08 2.93 1.26 5.85 2.55 8.76 3.86-2.97 6.47-7.25 12.24-11.09 18.2-2.24 3.06-4.2 6.53-7.57 8.5-6.36-1.34-12.36-3.98-18.7-5.43 4.51-8.1 9.15-16.15 12.87-24.66 2.06-4.06 3.19-8.56 5.63-12.43z" fill="#55e1f4" stroke="#55e1f4"/><path d="m293.49 351.7c1.63 7.03.33 14.22.34 21.33-.08 9.69-.14 19.39-.24 29.08-.09-.41-.25-1.24-.34-1.65-.79.4-1.58.79-2.39 1.16-1.47-4.13-1.42-8.6-1.69-12.92 2.25-3.99 2.23-8.67 1.89-13.11-.69 1.95-1.35 3.91-2.09 5.84l-1.05 1.21c.57-5.11 2.64-9.91 2.9-15.07 1.76-5.13 1.45-10.63 2.67-15.87z" fill="#0c80b2" stroke="#0c80b2"/><path d="m200.33 358.34c1.43-1.16 2.62 1.43 1.25 2.23-1.44 1.12-2.58-1.43-1.25-2.23z" fill="#66edf9" stroke="#66edf9"/><path d="m250.79 364.26c1.74-.09 3.5-.16 5.25-.29-1.52 2.43 3.05 2.89 1.85.23l1.07.38c-.28 1.78-1.41 3.2-2.52 4.56.07 4.52.2 9.21-2.14 13.27.88-4.61 1.69-9.26 1.48-13.98-1.52 3.89-2.98 7.8-4.53 11.68-.77 1.56-.37 3.28-.13 4.93.75 3.96.08 7.99.24 11.99l-1.04.03c-.09-3.69-.03-7.38.04-11.07.13-3.42-1.37-6.63-1.34-10.04.53.67 1.06 1.34 1.6 2.01.77-1.99 1.7-3.94 2.1-6.04-.46-2.6-1.95-4.95-1.93-7.66z" fill="#0b4598" stroke="#0b4598"/><path d="m256.04 363.97c.46.06 1.39.17 1.85.23 1.2 2.66-3.37 2.2-1.85-.23z" fill="#83d9fa" stroke="#83d9fa"/><path d="m211.19 366.25c1.43-.87 3.07-.21 4.59.01.05 1.39.91 3.09-.25 4.26-1.29 1.03-3.05.54-4.55.67-.43-1.59-1.3-3.64.21-4.94z" fill="#0c78a4" stroke="#0c78a4"/><path d="m253.07 366.01c1.47-1.1 2.34 1.56 1.26 2.41-1.43 1.22-2.45-1.6-1.26-2.41z" fill="#80dafa" stroke="#80dafa"/><path d="m212.16 367.29c.95-1.19 3.93-.11 2.66 1.47-.96 1.17-3.92.08-2.66-1.47z" fill="#65c0f2" stroke="#65c0f2"/><path d="m263.37 368.28c2.44.41 3.33 2.39 2.76 4.69-1.36-.01-2.72-.03-4.07-.04-.31-.85-.61-1.71-.92-2.56.74-.7 1.49-1.4 2.23-2.09z" fill="#0979ae" stroke="#0979ae"/><path d="m351.13 398.32c8.59-7.72 6.38-20.28 9.32-30.38.05 6.37-.45 12.72-.56 19.09-.09 5.29.98 10.69-.32 15.9-.39 1.91-2.43 2.41-3.97 3.06-1.3-2.38-2.6-4.77-4.05-7.06z" fill="#0b3795" stroke="#0b3795"/><path d="m196.51 371.83c-.81-2.64 3.93-3.46 4.25-.85-.12 1.12-.34 2.24-.64 3.34-1.3-.46-3.79-.52-3.61-2.49z" fill="#0c80b2" stroke="#0c80b2"/><path d="m228.54 369.53c2.19-.31 4.61 1.27 4.81 3.56.21 2.09.11 4.21.1 6.32-2.24 1.04-5.37 1.2-6.89-1.09-.66-2.98-.81-6.82 1.98-8.79z" fill="#012569" stroke="#012569"/><path d="m251.25 380.11c1.55-3.88 3.01-7.79 4.53-11.68.21 4.72-.6 9.37-1.48 13.98-3.08 5.47-3.16 11.81-2.63 17.91.59-.02 1.78-.06 2.37-.08-.87.11-1.73.22-2.59.34-.04-1.19-.07-2.37-.09-3.55-.16-4 .51-8.03-.24-11.99-.24-1.65-.64-3.37.13-4.93z" fill="#edffff" stroke="#edffff"/><path d="m263.37 370.32c.52.52.52.52 0 0z" fill="#5cc9ff" stroke="#5cc9ff"/><path d="m197.32 371.06c2.97-1.58.18 3.38 0 0z" fill="#8af0ff" stroke="#8af0ff"/><path d="m228.24 372.08c.19-2.49 2.83-1.21 4.19-.52.05 2.43.24 4.86.22 7.3-3.98.66-5.93-3.44-4.41-6.78z" fill="#b7fdff" stroke="#b7fdff"/><path d="m288.97 381.43c.74-1.93 1.4-3.89 2.09-5.84.34 4.44.36 9.12-1.89 13.11-.12-2.42-.22-4.84-.2-7.27z" fill="#389ed8" stroke="#389ed8"/><path d="m175.99 381.83c1.18 4.84 2.12 9.94 5.29 13.96 2.01 3.04 5.55 6.84 9.54 4.92 5.64-3.48 10.59-8.48 17.13-10.3 4.72-.65 7.61 3.83 10.54 6.73 2.48 2.47 4.98 4.92 7.6 7.25 2 2.11 4.78 2.99 7.59 3.46 1.19.25 2.39.52 3.59.8-3.53.13-7.3.33-10.47-1.55-5.85-2.9-8.89-9.02-13.79-13.06-1.38-1.14-3.19-2.33-4.98-1.27-6.59 2.67-12.28 7.03-18.23 10.82-3.13 2.47-7.17-.36-8.37-3.5-2.34-5.91-4.24-12.02-5.44-18.26z" fill="#014" stroke="#014"/><path d="m287.92 382.64 1.05-1.21c-.02 2.43.08 4.85.2 7.27.27 4.32.22 8.79 1.69 12.92.81-.37 1.6-.76 2.39-1.16.09.41.25 1.24.34 1.65.09 2.46 0 4.92-.15 7.38-2.71 2.07-5.73 3.66-8.9 4.9-6.18 2.47-12.19 5.42-18.61 7.23.45-3.34.71-6.74 1.79-9.96.84-3.94 5.8-2.92 8.67-4.26 5.6-2.21 5.67-9.34 10-12.92-.27-4.02.68-7.95 1.53-11.84z" fill="#082672" stroke="#082672"/><path d="m172.59 386.2c.49 3.88.37 8.63 4.17 10.95 1.65 3.41 4.16 6.21 6.85 8.83-.18 2.8-1.5 5.53-3.58 7.43-2.94.63-6.36.33-8.59-1.86-1.9-1.8-1.96-4.62-2.38-7.01 1.86-3.62.74-7.74 1.29-11.58.42-2.35 1.43-4.53 2.24-6.76z" fill="#08246f" stroke="#08246f"/><path d="m210.66 389.07c12.05 2.11 23.37 7.03 35 10.69.01.88.02 1.76.02 2.65-1.53-.41-3.06-.79-4.57-1.24-6.78-2.34-13.34-5.31-20.2-7.41-3.63-1.04-7.16-2.5-10.25-4.69z" fill="#041852" stroke="#041852"/><path d="m301.3 390.06c6.1.77 11.76 3.29 17.69 4.77 3.8.96 7.81.74 11.58 1.84 1.14.63 2.27 1.29 3.39 1.97-2.36 1.03-4.87 1.94-7.48 1.41-.93-1.17-1.87-2.31-2.9-3.38-4.18-.94-8.48-1.51-12.44-3.25-2.95-1.29-6.11-1.98-9.31-2.3-.48 2.92-.59 6.31 2.31 8.03l1.04.76c-1.35-.13-2.7-.23-4.06-.31.25-3.18.15-6.36.18-9.54z" fill="#92d7f8" stroke="#92d7f8"/><path d="m301.83 391.12c3.2.32 6.36 1.01 9.31 2.3 3.96 1.74 8.26 2.31 12.44 3.25-.02.58-.05 1.73-.07 2.3-6.45.88-12.92-.7-19.37.18-2.9-1.72-2.79-5.11-2.31-8.03z" fill="#1cc1e4" stroke="#1cc1e4"/><path d="m278.26 392.36c.48.15 1.44.46 1.92.61-.77 2.76-1.77 5.47-3.2 7.97-1.37-.27-2.73-.53-4.08-.79 1.73-2.63 3.52-5.22 5.36-7.79z" fill="#1c5191" stroke="#1c5191"/><path d="m218.49 397.14c.8-1.13 1.61-2.26 2.42-3.38 6.86 2.1 13.42 5.07 20.2 7.41-4.84 1.63-9.85 3.44-15.02 3.22-2.62-2.33-5.12-4.78-7.6-7.25z" fill="#dcfeff" stroke="#dcfeff"/><path d="m323.58 396.67c1.03 1.07 1.97 2.21 2.9 3.38-6.58-.08-13.16.34-19.74.09-.39-.06-1.17-.17-1.56-.23l-1.04-.76c6.45-.88 12.92.7 19.37-.18.02-.57.05-1.72.07-2.3z" fill="#38b4d1" stroke="#38b4d1"/><path d="m330.57 396.67c.87.06 2.61.19 3.48.26 3.87.35 7.78.49 11.66.09 1.81.4 3.62.8 5.42 1.3l.42.61c-1.38.09-2.75.19-4.12.28 1.89 1.42 2.94 3.49 2.93 5.88-.68-1.54-1.43-3.06-2.17-4.56-4.81.79-9.69.05-14.5.74l-.01 1.94c-2.47.05-4.98-.01-7.29-.99-.35-.14-1.04-.41-1.39-.55-2.53-.03-5.06.26-7.59.26-3.56-.59-7.12-1.17-10.67-1.79 6.58.25 13.16-.17 19.74-.09 2.61.53 5.12-.38 7.48-1.41-1.12-.68-2.25-1.34-3.39-1.97z" fill="#d0f3ff" stroke="#d0f3ff"/><path d="m118.85 402.39c13.98-1.64 28.08-1.41 42.12-1.96-.25 5.77 1.05 11.92 5.89 15.62-.99 1.33-2.36 2.26-3.78 3.08 1.4 1.62 3.17 2.88 5.33 3.24 11.8 2.78 23.73 4.97 35.58 7.54 12.32 2.25 24.57 5.13 37.08 6.15 6.43.55 12.77-1.04 18.77-3.18 8.14-2.96 16.44-5.51 24.9-7.34 4.87-1.15 9.46 1.65 14.31 1.54 9.38 0 18.71-1.1 28.01-2.15 10.3-1.32 20.74-1.73 30.9-4 1.66-.57 4.31-.61 4.33-2.93-1.99-2.3-4.94-3.36-7.52-4.83 4.95-1.34 9.08-5.06 10.4-10.09.34-.95.68-1.9 1.01-2.85 12.98-.21 25.91 1.17 38.88 1.21 16.24 2.19 32.88 1.87 48.9 5.72 1.07.14 3.52 1.32 1.75 2.46-4.71 1.65-9.8 1.58-14.67 2.51-14.35 1.75-28.74 3.07-43.13 4.51-4.61.74-9.43.18-13.86 1.87 10.92 1.75 22 2.04 32.92 3.78 3.78.7 8.15 1.68 10.46 5.06.55 2.92.61 6.3-1.39 8.72-3.19 4.74-9.01 6.5-14.32 7.58-22.29 4.2-45.11 3.54-67.69 3.8-20-.2-40.01.16-60-.51-9.99-.89-20.1-.11-30.02-1.85-11.23-2-22.59-3.22-33.99-3.72-11.36.27-22.64-1.33-34-1.08-7.15-.6-14.48.04-21.52-1.28 1.78-5 2.95-10.3 2.56-15.64-3.2 4.7-3.61 10.55-4.07 16.05-19.71.03-39.35-2.08-58.87-4.67-3.43-.52-7.05-.61-10.13-2.38 1.43-.77 2.85-1.55 4.39-2.07 11.79-3.62 24.17-4.24 36.33-5.77 4.26-.49 8.39-3.11 10.27-7.01-21.88-1.32-43.77-2.26-65.62-4.08-4.13-.55-8.49-.45-12.29-2.37 1.22-.86 2.45-1.78 3.94-2.07 9.96-2.73 20.31-3.51 30.52-4.77 5.69-1.23 11.54-1.27 17.32-1.84z" fill="#149fcd" stroke="#149fcd"/><path d="m301.12 399.6c1.36.08 2.71.18 4.06.31.39.06 1.17.17 1.56.23 3.55.62 7.11 1.2 10.67 1.79-3.55.24-7.24-.04-10.62 1.31-2.01.65-5.06 1.84-5.65-1.13-.01-.63-.01-1.88-.02-2.51z" fill="#f2fffd" stroke="#f2fffd"/><path d="m241.11 401.17c1.51.45 3.04.83 4.57 1.24-.02.43-.05 1.3-.06 1.74-.32 1.73-.56 3.48-.82 5.23-1.99-1.45-3.9-3.28-6.48-3.51l-1.19.49c-1.16.48-2.31.98-3.45 1.49-2.81-.47-5.59-1.35-7.59-3.46 5.17.22 10.18-1.59 15.02-3.22z" fill="#16aad0" stroke="#16aad0"/><path d="m317.41 401.93c2.53 0 5.06-.29 7.59-.26.35.14 1.04.41 1.39.55-1.91.3-3.8.67-5.68 1.05-1.38 3.83-3.01 7.67-5.76 10.74-.22.26-.67.79-.9 1.06-1.63-2.06-3.64-4.2-3.18-7.06-.34-1.36.72-3.47-.86-4.23-2.06 3.89.09 8.92-.52 13.27-.43-.6-.85-1.2-1.26-1.8-1.8-3.74-1.41-7.99-1.44-12.01 3.38-1.35 7.07-1.07 10.62-1.31z" fill="#092179" stroke="#092179"/><path d="m333.69 401.27c4.81-.69 9.69.05 14.5-.74.74 1.5 1.49 3.02 2.17 4.56.08.69.25 2.07.33 2.76-2.37.31-4.72.64-7.08.99-3.49 1.37-7.27 1.61-10.94 2.16.35-2.6.85-5.17 1.01-7.79z" fill="#0a3685" stroke="#0a3685"/><path d="m187.79 406.76c2.54-1.38 5.03-2.84 7.53-4.28 1.92 2.71 5.79 2.7 7.72 5.4-2.89-1.19-6.03-1.4-9.11-1.3-2.05 0-4.09.1-6.14.18z" fill="#c5f5fe" stroke="#c5f5fe"/><path d="m253.05 402.31c1.64-.14 3.29-.26 4.94-.36-1.5 1.95-3.35 3.57-5.22 5.16.08-1.61.17-3.21.28-4.8z" fill="#8af0ff" stroke="#8af0ff"/><path d="m301.14 402.11c.59 2.97 3.64 1.78 5.65 1.13.03 4.02-.36 8.27 1.44 12.01-3.44.51-6.93.49-10.38.07 2.36-4 3.7-8.53 3.29-13.21z" fill="#80dafa" stroke="#80dafa"/><path d="m326.39 402.22c2.31.98 4.82 1.04 7.29.99-.16 2.62-.66 5.19-1.01 7.79-1.15.74-2.3 1.56-3.67 1.83-4.6.97-9.34 1.99-14.05 1.18 2.75-3.07 4.38-6.91 5.76-10.74 1.88-.38 3.77-.75 5.68-1.05z" fill="#fcfffd" stroke="#fcfffd"/><path d="m263.38 404.41c1.94-1.33 4.32-.43 6.44-.19-3.37 2.92-4.2 7.43-6.48 11.08-1.03 1.76-1.46 3.8-2.45 5.58-2.1 1.94-5.13 2.18-7.77 2.94-.34-4.05-.58-8.09-.66-12.15 3.76-2.23 7.23-4.91 10.92-7.26z" fill="#9ce5fc" stroke="#9ce5fc"/><path d="m289.03 404.02c1.6-.51 2.14.06 1.62 1.71-1.62.5-2.16-.07-1.62-1.71z" fill="#4d67ad" stroke="#4d67ad"/><path d="m186.57 415.28c-.02-2.84.02-5.67.24-8.49.23 2.74.35 5.48.44 8.23.31-.04.94-.1 1.26-.14-.08-2.19-.11-4.38-.13-6.56 1.2.08 2.41.18 3.61.26-.01.93-.03 2.79-.04 3.71 2.68.76 2.58-1.71 2.64-3.57-.17-.53-.5-1.61-.66-2.14 3.08-.1 6.22.11 9.11 1.3.44.36 1.34 1.07 1.78 1.43-3.5 3.59-8.48 4.95-12.92 6.97-1.77-.4-3.54-.72-5.33-1z" fill="#37d0ea" stroke="#37d0ea"/><path d="m186.81 406.79.98-.03c2.05-.08 4.09-.18 6.14-.18.16.53.49 1.61.66 2.14-.65-.03-1.95-.1-2.6-.14-1.2-.08-2.41-.18-3.61-.26.02 2.18.05 4.37.13 6.56-.32.04-.95.1-1.26.14-.09-2.75-.21-5.49-.44-8.23z" fill="#56c4d0" stroke="#56c4d0"/><path d="m191.99 408.58c.65.04 1.95.11 2.6.14-.06 1.86.04 4.33-2.64 3.57.01-.92.03-2.78.04-3.71z" fill="#8bf6fb" stroke="#8bf6fb"/><path d="m204.82 409.31c4.67 3.26 11.15 3.31 14.99 7.78-1.36 1.19-2.83 2.54-4.8 2.27-7.76.12-15.87.03-23.11-3.08 4.44-2.02 9.42-3.38 12.92-6.97z" fill="#b5ecfc" stroke="#b5ecfc"/><path d="m227.47 418.73c2.37-6.36 11.34-8.42 16.12-3.44 1.22 4.12.14 8.46 0 12.66-4.67-.31-8.85-2.61-12.96-4.63-1.73-.84-3.78-2.4-3.16-4.59z" fill="#a5e7fd" stroke="#a5e7fd"/><path d="m302.98 422.37c17.38-2.22 34.91-4.38 51.79-9.2 2.58 1.47 5.53 2.53 7.52 4.83-.02 2.32-2.67 2.36-4.33 2.93-10.16 2.27-20.6 2.68-30.9 4-9.3 1.05-18.63 2.15-28.01 2.15-4.85.11-9.44-2.69-14.31-1.54-8.46 1.83-16.76 4.38-24.9 7.34-6 2.14-12.34 3.73-18.77 3.18-12.51-1.02-24.76-3.9-37.08-6.15-11.85-2.57-23.78-4.76-35.58-7.54-2.16-.36-3.93-1.62-5.33-3.24 1.42-.82 2.79-1.75 3.78-3.08 5.72 3.69 12.63 4.26 19.08 5.88 13.02 2.63 26.19 4.58 39.04 7.95 8.75 1.4 17.64 4.97 26.54 2.37 12.32-3.72 24.28-8.6 36.5-12.55 5.02.55 9.74 3.56 14.96 2.67z" fill="#0e5fac" stroke="#0e5fac"/><path d="m365.11 422.79c1.14.26 1.81.98 2.01 2.16 2.05 6.13 3.71 12.63 2.63 19.14-1.99-1.78-1.29-4.64-1.62-6.99-.06-4.95-2.53-9.42-3.02-14.31z" fill="#31c1e7" stroke="#31c1e7"/><path d="m162.99 439.42c.46-5.5.87-11.35 4.07-16.05.39 5.34-.78 10.64-2.56 15.64-.38.1-1.13.3-1.51.41z" fill="#3dd3f1" stroke="#3dd3f1"/><path d="m298.11 431.17c1.5.06 3.02.05 4.5.33 3.29 2.67 6.39 5.77 8.39 9.56-1.55.8-3.35.77-4.65-.51-3.13-2.73-6.52-5.49-8.24-9.38z" fill="#379add" stroke="#379add"/><path d="m364.74 431.93c2.4 1.92 2.18 5.21 1.89 7.97-1.41 1.64-3.76.53-5.51.18 1.82-2.42 3.1-5.16 3.62-8.15z" fill="#3fb7e2" stroke="#3fb7e2"/><path d="m355.58 441.74c.19-2.06-.13-4.33 1.15-6.11.33 2.77 1.41 5.32 3.25 7.43-5.19.87-10.46.94-15.69 1.42-8.47.47-16.89 1.64-25.37 1.78-1.48.08-2.88-.38-4.23-.9 5.03-1.18 10.23-.32 15.29-1.18 7.3-1.13 14.73-1.05 22.04-2.17.11-.7.34-2.11.46-2.81.25.84.51 1.69.77 2.55.58 0 1.75-.01 2.33-.01z" fill="#30b6e0" stroke="#30b6e0"/><path d="m314.67 443.9c2.5-2.99 7.01-2.57 10.48-3.68-.69 1.14-.71 3.11-2.32 3.37-2.72-.02-5.45-.05-8.16.31z" fill="#38b2e7" stroke="#38b2e7"/><path d="m260.9 449.54c6.22-.78 13.06-2.26 19.01.43-3.93 2.24-8.6 1.31-12.9 1.41-2.09-.25-4.84.24-6.11-1.84z" fill="#179cbc" stroke="#179cbc"/></g></svg>