<svg xmlns="http://www.w3.org/2000/svg" viewBox="0 0 265.25 336.22" height="100%" width="100%">
  <g>
    <path d="M145.45,18l35,49.38c-18.37,11.61-45.75-3.1-57.1-16s-22.6,3.13-49.87-8.22C46.84,32.08,60,14,60.28,13.32l0,0L98.23,1.83A42.73,42.73,0,0,1,145.45,18" style="fill: #4b9ee2"/>
    <path d="M265.09,192.9,264,196.74,146.55,228.56c-11.37,3-22.64-6.57-28.49-16.77L13.84,28.27a37.89,37.89,0,0,1,6.42-2.84l40-12.11c-.26.7-6.46,17,20.21,28.14,27.27,11.35,34.82-8.32,46.19,4.55s31.9,24.58,53.81,21.38l79.49,112a28.45,28.45,0,0,1,5.11,13.49" style="fill: #12446e"/>
    <path d="M265.09,192.9l-2.77.25L149.05,223a26,26,0,0,1-29.19-12.2L14.68,27.78a28.55,28.55,0,0,0-11.51,38L81.76,218.19S97.68,273,84.31,294s-7.77,32.58,5.34,40.48,39.91-12.47,30.33-29S104,270.36,112,264a28.55,28.55,0,0,0,12.19,2.75h7.38a28.16,28.16,0,0,0,7.81-1.08l43.09-12.26-7.91-14.78a6.78,6.78,0,0,1,4.05-9.7l25.67-7.62a6.77,6.77,0,0,1,7.79,3.09l10.3,17.63,14.79-4.21a28.55,28.55,0,0,0,17.6-14.49l7.38-14.52a28.46,28.46,0,0,0,2.95-15.93" style="fill: #0b2c46"/>
    <path d="M257.41,302a21.6,21.6,0,1,1-37.69,21.08l-37.25-69.64L169.23,237.7c-2-3.79,3.92-10.39,8-11.61l25.67-7.62c3-.89,8.9-1.08,10.48,1.63l9,22Z" style="fill: #4b9ee2"/>
    <path d="M126.68,46c11.36,12.87,31.9,24.58,53.81,21.38l-8.54-12c-9.61-.32-28.35-4.9-33.06-8.79-5.49-4.54-6.69-11.94-24.12-7.88S84,36.05,73.41,26s0-16.68,0-16.68l-.18.05L60.29,13.31h0c-.26.7-6.46,17,20.21,28.14,27.27,11.35,34.82-8.32,46.19,4.55" style="fill: #1b68a7"/>
    <path d="M124,265.47h7.38a28.17,28.17,0,0,0,7.81-1.09l43.09-12.26-7.91-14.77a6.79,6.79,0,0,1,4-9.71L204.12,220a6.77,6.77,0,0,1,7.79,3.09l10.3,17.63L237,236.54a28.55,28.55,0,0,0,17.6-14.49L262,207.53a28.48,28.48,0,0,0,2.95-15.94l-2.77.26L148.89,221.73a26,26,0,0,1-18.56-2l-12.61,45.06a28.2,28.2,0,0,0,6.31.72" style="fill: #081e30"/>
    <path d="M73.71,62.66a5.09,5.09,0,0,0-7,1.62L60.25,74.6A5.08,5.08,0,1,0,68.87,80l6.46-10.33a5.09,5.09,0,0,0-1.62-7" style="fill: #2c8ddd"/>
    <path d="M140.77,72.91a5.09,5.09,0,0,0-7,1.61l-6.45,10.33a5.09,5.09,0,1,0,8.63,5.39l6.45-10.33a5.09,5.09,0,0,0-1.62-7" style="fill: #2c8ddd"/>
    <path d="M111.15,119.38a5.09,5.09,0,0,0-7,1.62l-6.45,10.32a5.08,5.08,0,1,0,8.62,5.39l6.45-10.32a5.09,5.09,0,0,0-1.61-7" style="fill: #2c8ddd"/>
    <path d="M179.67,127.19a5.09,5.09,0,0,0-7,1.62l-6.45,10.32a5.09,5.09,0,1,0,8.63,5.39l6.45-10.33a5.09,5.09,0,0,0-1.62-7" style="fill: #2c8ddd"/>
    <path d="M234.39,158.12a5.09,5.09,0,0,0-7,1.62l-6.45,10.32a5.08,5.08,0,1,0,8.62,5.39L236,165.13a5.1,5.1,0,0,0-1.62-7" style="fill: #2c8ddd"/>
    <path d="M145.8,178.62a5.08,5.08,0,0,0-7,1.61l-6.45,10.33A5.08,5.08,0,1,0,141,196l6.45-10.33a5.08,5.08,0,0,0-1.62-7" style="fill: #2c8ddd"/>
  </g>
</svg>
