<svg xmlns="http://www.w3.org/2000/svg" viewBox="0 0 568.41 513.6" height="100%" width="100%">
  <g>
    <path d="M0,513.12H0q5.09-18.42,9.38-40.19h0q9.85-49.71,14-73.54h0l25.42-4q-18.12,92.14-22.1,114.7h0a139.48,139.48,0,0,0-15.4,1.42Q.33,513,0,513.12Zm71-8.74q-6.69-9.86-6.69-25.9a113.12,113.12,0,0,1,4.23-31A98.54,98.54,0,0,1,80.3,420.75a67,67,0,0,1,18.2-19.13,39.78,39.78,0,0,1,23.11-7.3h0a18.11,18.11,0,0,1,13.81,6.18h0q5.58,6.36,5.57,16.68h0v2.07a12.88,12.88,0,0,1-.17,2.06h0L119.55,427c-1.28-2.66-2.79-4-4.53-4s-3.58,1-5.48,3a42.7,42.7,0,0,0-5.64,7.79,98.23,98.23,0,0,0-5.33,10.72q-2.53,6-4.43,12h0q-4.45,13.35-4.46,21.54t4.94,8.18h0q4,0,8.41-4.93h0a24.63,24.63,0,0,0,5.71-10.47h0l18.59,7.45q-7.14,16.68-18.75,26.53h0q-10.31,8.75-21.13,8.74h0q-10.15,0-16.5-9.22Zm132.56,1-52.58,8.09,21.28-115.62,51.47-4.45c-.74,2.43-1.38,4.79-1.9,7.07s-1.07,4.52-1.6,6.74-.94,4.19-1.26,5.88h0q-4.77.48-13,.48h-11l-5.71,29.22q8.73-.48,14.61-.63c3.91-.11,6.46-.21,7.62-.31h0q-.63,4.59-1.19,9t-1.34,9h0c-1.17.1-3,.18-5.4.23s-5,.14-7.63.25-5.62.21-8.89.31h0l-5.56,30,23.65-3.83Zm53.62,2.54L229,513.43q16.68-74.17,22.86-115h0q17.46-5.25,26.21-5.25t13.73,2.46a22.82,22.82,0,0,1,8.19,6.59h0q5.55,7.47,5.55,21.6h0a47.94,47.94,0,0,1-3.32,17.56,54,54,0,0,1-8.9,15.08A43.48,43.48,0,0,1,280.47,467a31.62,31.62,0,0,1-15.08,3.9h-1.75q-3,13.32-6.51,37ZM267,453.72h0q5.73-1.44,10.65-9.22h0a35.56,35.56,0,0,0,5.4-19.37h0q0-6-2.69-9.14t-5.88-3.09h0Q270.3,435.93,267,453.72Zm102.4,51.62-52.58,8.09,21.29-115.62,51.46-4.45q-1.11,3.64-1.92,7.07c-.52,2.28-1.05,4.52-1.57,6.74s-1,4.19-1.27,5.88h0q-4.77.48-13,.48h-11l-5.7,29.22q8.71-.48,14.6-.63t7.63-.31h0c-.43,3.06-.82,6.05-1.2,9s-.82,5.9-1.34,9h0c-1.17.1-3,.18-5.4.23s-5,.14-7.63.25-5.61.21-8.89.31h0l-5.55,30,23.65-3.83Zm53,1.27L396,513.43Q412.49,433.56,416.14,400h0q18.42-5.7,41.31-5.7h0q17.15,0,20.32,11.91h0a36.18,36.18,0,0,1,1,9A35,35,0,0,1,476.5,427a54.58,54.58,0,0,1-6,12h0a55.13,55.13,0,0,1-19.54,17.79h0q6.19,13.32,11.05,25.16l8.16,19.94h0l-25.24,8.9q-12.24-40.19-12.72-45.92h0l-2.05.64q-1.28,7.32-3.83,20.34t-3.95,20.81ZM439.5,417l-5.24,25.87q6.36-.63,16-8.08h0q10-7.63,10-12.55h0q0-4.61-8.74-5.24h0c-1.69-.11-3.39-.16-5.09-.16h0Zm53.14,96.4h0q4.77-17.31,8.74-40.17h0q7.46-42.09,12.55-76.89h0l54.48-2.86-4.61,20H538.23l-5.09,29.07c3.39-.11,6.47-.16,9.22-.16h8.09c2.55,0,4.57-.05,6-.17h0l-2.71,17.64q-3,0-23.34-.64h0l-7.47,48Q509.32,509.63,492.64,513.43Z" style="fill: #081e30"/>
    <g>
      <path d="M257.86,18l35,49.38c-18.37,11.61-45.75-3.1-57.1-16s-22.61,3.13-49.88-8.22C159.25,32.08,172.43,14,172.69,13.32l0,0L210.63,1.83A42.74,42.74,0,0,1,257.86,18" style="fill: #4b9ee2"/>
      <path d="M377.49,192.9l-1.06,3.84L259,228.56c-11.37,3-22.63-6.57-28.48-16.77L126.25,28.27a37.89,37.89,0,0,1,6.42-2.84l40-12.11c-.26.7-6.47,17,20.21,28.14,27.27,11.35,34.82-8.32,46.19,4.55S271,70.59,292.9,67.39l79.49,112a28.33,28.33,0,0,1,5.1,13.49" style="fill: #12446e"/>
      <path d="M377.49,192.9l-2.77.25L261.46,223a26,26,0,0,1-29.19-12.2l-105.18-183a28.54,28.54,0,0,0-11.51,38l78.58,152.42S210.08,273,196.71,294s-7.77,32.58,5.35,40.48,39.91-12.47,30.33-29-15.94-35.07-8-41.41a28.52,28.52,0,0,0,12.19,2.75H244a28.23,28.23,0,0,0,7.82-1.08l43.08-12.26L287,238.65a6.77,6.77,0,0,1,4-9.7l25.67-7.62a6.78,6.78,0,0,1,7.79,3.09l10.3,17.63,14.79-4.21a28.58,28.58,0,0,0,17.6-14.49l7.38-14.52a28.45,28.45,0,0,0,2.94-15.93" style="fill: #0b2c46"/>
      <path d="M369.82,302a21.6,21.6,0,1,1-37.69,21.08l-37.26-69.64L281.64,237.7c-2-3.79,3.92-10.39,8-11.61l25.67-7.62c3-.89,8.89-1.08,10.48,1.63l9,22Z" style="fill: #4b9ee2"/>
      <path d="M239.09,46C250.44,58.88,271,70.59,292.9,67.39l-8.55-12c-9.61-.32-28.34-4.9-33.06-8.79-5.49-4.54-6.68-11.94-24.11-7.88S196.38,36.05,185.81,26s0-16.68,0-16.68l-.17.05L172.7,13.31h0c-.26.7-6.47,17,20.21,28.14,27.27,11.35,34.82-8.32,46.19,4.55" style="fill: #1b68a7"/>
      <path d="M236.44,265.47h7.37a28.18,28.18,0,0,0,7.82-1.09l43.09-12.26-7.91-14.77a6.79,6.79,0,0,1,4.05-9.71L316.53,220a6.78,6.78,0,0,1,7.79,3.09l10.3,17.63,14.79-4.21A28.58,28.58,0,0,0,367,222.05l7.38-14.52a28.39,28.39,0,0,0,2.94-15.94l-2.77.26L261.3,221.73a26,26,0,0,1-18.56-2l-12.61,45.06a28.13,28.13,0,0,0,6.31.72" style="fill: #081e30"/>
      <path d="M186.11,62.66a5.08,5.08,0,0,0-7,1.62L172.66,74.6A5.08,5.08,0,1,0,181.28,80l6.45-10.33a5.07,5.07,0,0,0-1.62-7" style="fill: #2c8ddd"/>
      <path d="M253.18,72.91a5.09,5.09,0,0,0-7,1.61l-6.45,10.33a5.08,5.08,0,1,0,8.62,5.39l6.45-10.33a5.08,5.08,0,0,0-1.61-7" style="fill: #2c8ddd"/>
      <path d="M223.55,119.38a5.08,5.08,0,0,0-7,1.62l-6.45,10.32a5.08,5.08,0,1,0,8.62,5.39l6.45-10.32a5.09,5.09,0,0,0-1.62-7" style="fill: #2c8ddd"/>
      <path d="M292.07,127.19a5.08,5.08,0,0,0-7,1.62l-6.45,10.32a5.08,5.08,0,1,0,8.62,5.39l6.45-10.33a5.07,5.07,0,0,0-1.62-7" style="fill: #2c8ddd"/>
      <path d="M346.79,158.12a5.08,5.08,0,0,0-7,1.62l-6.45,10.32a5.08,5.08,0,1,0,8.62,5.39l6.45-10.32a5.09,5.09,0,0,0-1.62-7" style="fill: #2c8ddd"/>
      <path d="M258.21,178.62a5.09,5.09,0,0,0-7,1.61l-6.45,10.33a5.09,5.09,0,1,0,8.63,5.39l6.45-10.33a5.08,5.08,0,0,0-1.62-7" style="fill: #2c8ddd"/>
    </g>
  </g>
</svg>
