<svg xmlns="http://www.w3.org/2000/svg" viewBox="0 0 927.27 336.22" width="100%" height="100%">
  <g>
    <path d="M358.86,206.63h0q5.08-18.42,9.37-40.19h0q9.86-49.73,14-73.54h0l25.41-4q-18.11,92.15-22.09,114.69h0A142.19,142.19,0,0,0,370.13,205Q359.18,206.46,358.86,206.63Zm70.94-8.74q-6.68-9.85-6.68-25.9a113.06,113.06,0,0,1,4.23-31,98.54,98.54,0,0,1,11.81-26.76,67,67,0,0,1,18.19-19.13,39.81,39.81,0,0,1,23.12-7.3h0A18.13,18.13,0,0,1,494.28,94h0q5.57,6.36,5.57,16.68h0v2.07a14.26,14.26,0,0,1-.17,2.06h0l-21.27,5.72q-1.92-4-4.53-4c-1.76,0-3.58,1-5.48,3a42.6,42.6,0,0,0-5.65,7.78,100.1,100.1,0,0,0-5.32,10.72q-2.54,6-4.44,12h0q-4.46,13.35-4.45,21.54t4.93,8.18h0q4,0,8.42-4.94h0a24.39,24.39,0,0,0,5.7-10.47h0l18.6,7.46q-7.14,16.66-18.75,26.53h0q-10.32,8.74-21.13,8.74h0q-10.17,0-16.51-9.22Zm132.56,1-52.58,8.09L531.07,91.32l51.47-4.46c-.75,2.44-1.38,4.79-1.91,7.07s-1.07,4.53-1.59,6.75-.95,4.19-1.27,5.88h0c-3.17.32-7.52.48-13,.48h-11l-5.71,29.22q8.73-.48,14.6-.64t7.63-.3h0q-.63,4.59-1.19,9t-1.35,9h0c-1.16.1-3,.18-5.4.23s-5,.13-7.62.25l-8.9.31h0l-5.55,30,23.65-3.82ZM616,201.38l-28.1,5.56q16.67-74.17,22.86-115h0q17.46-5.25,26.2-5.25t13.74,2.46a22.78,22.78,0,0,1,8.18,6.59h0q5.57,7.47,5.56,21.59h0a47.67,47.67,0,0,1-3.33,17.56A53.79,53.79,0,0,1,652.2,150a43.32,43.32,0,0,1-12.87,10.49,31.65,31.65,0,0,1-15.09,3.9H622.5q-3,13.34-6.52,37Zm9.84-54.15h0q5.73-1.44,10.64-9.22h0a35.59,35.59,0,0,0,5.4-19.37h0q0-6-2.69-9.14t-5.88-3.1h0Q629.17,129.44,625.82,147.23Zm102.4,51.62-52.58,8.09L696.92,91.32l51.47-4.46c-.74,2.44-1.38,4.79-1.92,7.07s-1.05,4.53-1.58,6.75-1,4.19-1.27,5.88h0q-4.75.48-13,.48h-11l-5.71,29.22q8.73-.48,14.6-.64c3.92-.1,6.47-.2,7.63-.3h0q-.63,4.59-1.19,9t-1.34,9h0c-1.17.1-3,.18-5.4.23s-5,.13-7.63.25l-8.89.31h0l-5.56,30,23.65-3.82Zm53,1.27-26.37,6.82Q771.35,127.05,775,93.53h0q18.42-5.7,41.3-5.7h0q17.16,0,20.33,11.91h0a36.15,36.15,0,0,1,1,9,35,35,0,0,1-2.23,11.69,55.17,55.17,0,0,1-6,12h0a55,55,0,0,1-19.54,17.79h0q6.18,13.33,11.05,25.17T829,195.35h0l-25.24,8.9Q791.52,164,791,158.33h0L789,159q-1.26,7.32-3.82,20.34t-4,20.81Zm17.16-89.59-5.25,25.88q6.36-.63,16-8.09h0q10-7.62,10-12.54h0c0-3.08-2.91-4.82-8.74-5.25h0c-1.69-.1-3.38-.15-5.09-.15h0Zm53.14,96.41h0q4.75-17.31,8.74-40.17h0q7.46-42.11,12.54-76.89h0L927.27,87l-4.61,20H897.09L892,136.1q5.09-.15,9.22-.15h8.09q3.81,0,6.05-.17h0l-2.71,17.63q-3,0-23.34-.63h0l-7.48,48Q868.18,203.14,851.5,206.94Z" style="fill: #081e30"/>
    <g>
      <path d="M145.45,18l35,49.38c-18.37,11.61-45.75-3.1-57.1-16s-22.6,3.13-49.87-8.22C46.84,32.08,60,14,60.28,13.32l0,0L98.23,1.83A42.73,42.73,0,0,1,145.45,18" style="fill: #4b9ee2"/>
      <path d="M265.09,192.9,264,196.74,146.55,228.56c-11.37,3-22.64-6.57-28.49-16.77L13.84,28.27a37.89,37.89,0,0,1,6.42-2.84l40-12.11c-.26.7-6.46,17,20.21,28.14,27.27,11.35,34.82-8.32,46.19,4.55s31.9,24.58,53.81,21.38l79.49,112a28.45,28.45,0,0,1,5.11,13.49" style="fill: #12446e"/>
      <path d="M265.09,192.9l-2.77.25L149.05,223a26,26,0,0,1-29.19-12.2L14.68,27.78a28.55,28.55,0,0,0-11.51,38L81.76,218.19S97.68,273,84.31,294s-7.77,32.58,5.34,40.48,39.91-12.47,30.33-29S104,270.36,112,264a28.55,28.55,0,0,0,12.19,2.75h7.38a28.16,28.16,0,0,0,7.81-1.08l43.09-12.26-7.91-14.78a6.78,6.78,0,0,1,4.05-9.7l25.67-7.62a6.77,6.77,0,0,1,7.79,3.09l10.3,17.63,14.79-4.21a28.55,28.55,0,0,0,17.6-14.49l7.38-14.52a28.46,28.46,0,0,0,2.95-15.93" style="fill: #0b2c46"/>
      <path d="M257.41,302a21.6,21.6,0,1,1-37.69,21.08l-37.25-69.64L169.23,237.7c-2-3.79,3.92-10.39,8-11.61l25.67-7.62c3-.89,8.9-1.08,10.48,1.63l9,22Z" style="fill: #4b9ee2"/>
      <path d="M126.68,46c11.36,12.87,31.9,24.58,53.81,21.38l-8.54-12c-9.61-.32-28.35-4.9-33.06-8.79-5.49-4.54-6.69-11.94-24.12-7.88S84,36.05,73.41,26s0-16.68,0-16.68l-.18.05L60.29,13.31h0c-.26.7-6.46,17,20.21,28.14,27.27,11.35,34.82-8.32,46.19,4.55" style="fill: #1b68a7"/>
      <path d="M124,265.47h7.38a28.17,28.17,0,0,0,7.81-1.09l43.09-12.26-7.91-14.77a6.79,6.79,0,0,1,4-9.71L204.12,220a6.77,6.77,0,0,1,7.79,3.09l10.3,17.63L237,236.54a28.55,28.55,0,0,0,17.6-14.49L262,207.53a28.48,28.48,0,0,0,2.95-15.94l-2.77.26L148.89,221.73a26,26,0,0,1-18.56-2l-12.61,45.06a28.2,28.2,0,0,0,6.31.72" style="fill: #081e30"/>
      <path d="M73.71,62.66a5.09,5.09,0,0,0-7,1.62L60.25,74.6A5.08,5.08,0,1,0,68.87,80l6.46-10.33a5.09,5.09,0,0,0-1.62-7" style="fill: #2c8ddd"/>
      <path d="M140.77,72.91a5.09,5.09,0,0,0-7,1.61l-6.45,10.33a5.09,5.09,0,1,0,8.63,5.39l6.45-10.33a5.09,5.09,0,0,0-1.62-7" style="fill: #2c8ddd"/>
      <path d="M111.15,119.38a5.09,5.09,0,0,0-7,1.62l-6.45,10.32a5.08,5.08,0,1,0,8.62,5.39l6.45-10.32a5.09,5.09,0,0,0-1.61-7" style="fill: #2c8ddd"/>
      <path d="M179.67,127.19a5.09,5.09,0,0,0-7,1.62l-6.45,10.32a5.09,5.09,0,1,0,8.63,5.39l6.45-10.33a5.09,5.09,0,0,0-1.62-7" style="fill: #2c8ddd"/>
      <path d="M234.39,158.12a5.09,5.09,0,0,0-7,1.62l-6.45,10.32a5.08,5.08,0,1,0,8.62,5.39L236,165.13a5.1,5.1,0,0,0-1.62-7" style="fill: #2c8ddd"/>
      <path d="M145.8,178.62a5.08,5.08,0,0,0-7,1.61l-6.45,10.33A5.08,5.08,0,1,0,141,196l6.45-10.33a5.08,5.08,0,0,0-1.62-7" style="fill: #2c8ddd"/>
    </g>
  </g>
</svg>
